JosefinSlab-Light_ik.ufo
<glyph name="exclam" format="1">
  <advance width="240"/>
  <unicode hex="0021"/>
  <outline>
    <contour>
      <point x="102" y="753" type="line"/>
      <point x="138" y="753" type="line"/>
      <point x="138" y="167" type="line"/>
      <point x="102" y="167" type="line"/>
    </contour>
    <contour>
      <point x="120" y="25" type="qcurve"/>
      <point x="109" y="25"/>
      <point x="91" y="42"/>
      <point x="91" y="55" type="qcurve"/>
      <point x="91" y="69"/>
      <point x="109" y="86"/>
      <point x="120" y="86" type="qcurve"/>
      <point x="132" y="86"/>
      <point x="150" y="69"/>
      <point x="150" y="55" type="qcurve"/>
      <point x="150" y="42"/>
      <point x="132" y="25"/>
    </contour>
  </outline>
</glyph>
<glyph name="dollar" format="1">
  <advance width="545"/>
  <unicode hex="0024"/>
  <outline>
    <contour>
      <point x="421" y="572" type="line"/>
      <point x="421" y="648" type="line"/>
      <point x="391" y="658"/>
      <point x="320" y="673"/>
      <point x="285" y="673" type="qcurve"/>
      <point x="282" y="673" type="line"/>
      <point x="282" y="406" type="line"/>
      <point x="320" y="392"/>
      <point x="396" y="360"/>
      <point x="456" y="312"/>
      <point x="494" y="243"/>
      <point x="494" y="192" type="qcurve"/>
      <point x="494" y="148"/>
      <point x="464" y="77"/>
      <point x="409" y="26"/>
      <point x="330" y="-4"/>
      <point x="282" y="-7" type="qcurve"/>
      <point x="282" y="-68" type="line"/>
      <point x="254" y="-68" type="line"/>
      <point x="254" y="-8" type="line"/>
      <point x="214" y="-7"/>
      <point x="148" y="10"/>
      <point x="97" y="33"/>
      <point x="61" y="55"/>
      <point x="51" y="62" type="qcurve"/>
      <point x="51" y="161" type="line"/>
      <point x="91" y="161" type="line"/>
      <point x="91" y="85" type="line"/>
      <point x="123" y="65"/>
      <point x="209" y="34"/>
      <point x="254" y="32" type="qcurve"/>
      <point x="254" y="374" type="line"/>
      <point x="220" y="386"/>
      <point x="157" y="414"/>
      <point x="108" y="451"/>
      <point x="78" y="503"/>
      <point x="78" y="539" type="qcurve"/>
      <point x="78" y="572"/>
      <point x="103" y="630"/>
      <point x="149" y="676"/>
      <point x="214" y="705"/>
      <point x="254" y="709" type="qcurve"/>
      <point x="254" y="772" type="line"/>
      <point x="282" y="772" type="line"/>
      <point x="282" y="711" type="line"/>
      <point x="304" y="711"/>
      <point x="355" y="703"/>
      <point x="403" y="692"/>
      <point x="446" y="678"/>
      <point x="460" y="672" type="qcurve"/>
      <point x="460" y="572" type="line"/>
    </contour>
    <contour>
      <point x="453" y="193" type="qcurve"/>
      <point x="453" y="230"/>
      <point x="424" y="284"/>
      <point x="377" y="323"/>
      <point x="315" y="352"/>
      <point x="282" y="364" type="qcurve"/>
      <point x="282" y="33" type="line"/>
      <point x="313" y="36"/>
      <point x="374" y="57"/>
      <point x="423" y="97"/>
      <point x="453" y="154"/>
    </contour>
    <contour>
      <point x="119" y="543" type="qcurve"/>
      <point x="119" y="517"/>
      <point x="140" y="478"/>
      <point x="177" y="449"/>
      <point x="226" y="426"/>
      <point x="254" y="416" type="qcurve"/>
      <point x="254" y="671" type="line"/>
      <point x="191" y="663"/>
      <point x="119" y="591"/>
    </contour>
  </outline>
</glyph>
<glyph name="percent" format="1">
  <advance width="650"/>
  <unicode hex="0025"/>
  <outline>
    <contour>
      <point x="410" y="112" type="qcurve"/>
      <point x="410" y="79"/>
      <point x="456" y="33"/>
      <point x="490" y="33" type="qcurve"/>
      <point x="524" y="33"/>
      <point x="570" y="79"/>
      <point x="570" y="112" type="qcurve"/>
      <point x="570" y="145"/>
      <point x="524" y="192"/>
      <point x="490" y="192" type="qcurve"/>
      <point x="456" y="192"/>
      <point x="410" y="145"/>
    </contour>
    <contour>
      <point x="490" y="-2" type="qcurve"/>
      <point x="466" y="-2"/>
      <point x="424" y="16"/>
      <point x="393" y="47"/>
      <point x="374" y="89"/>
      <point x="374" y="113" type="qcurve"/>
      <point x="374" y="137"/>
      <point x="393" y="178"/>
      <point x="424" y="209"/>
      <point x="466" y="227"/>
      <point x="490" y="227" type="qcurve"/>
      <point x="513" y="227"/>
      <point x="555" y="209"/>
      <point x="587" y="178"/>
      <point x="606" y="137"/>
      <point x="606" y="113" type="qcurve"/>
      <point x="606" y="89"/>
      <point x="587" y="47"/>
      <point x="555" y="16"/>
      <point x="513" y="-2"/>
    </contour>
    <contour>
      <point x="85" y="390" type="qcurve"/>
      <point x="85" y="357"/>
      <point x="131" y="311"/>
      <point x="165" y="311" type="qcurve"/>
      <point x="199" y="311"/>
      <point x="245" y="357"/>
      <point x="245" y="390" type="qcurve"/>
      <point x="245" y="423"/>
      <point x="199" y="469"/>
      <point x="165" y="469" type="qcurve"/>
      <point x="131" y="469"/>
      <point x="85" y="423"/>
    </contour>
    <contour>
      <point x="165" y="275" type="qcurve"/>
      <point x="141" y="275"/>
      <point x="99" y="293"/>
      <point x="67" y="324"/>
      <point x="49" y="367"/>
      <point x="49" y="391" type="qcurve"/>
      <point x="49" y="415"/>
      <point x="67" y="456"/>
      <point x="99" y="487"/>
      <point x="141" y="505"/>
      <point x="165" y="505" type="qcurve"/>
      <point x="188" y="505"/>
      <point x="230" y="487"/>
      <point x="262" y="456"/>
      <point x="281" y="415"/>
      <point x="281" y="391" type="qcurve"/>
      <point x="281" y="367"/>
      <point x="262" y="324"/>
      <point x="230" y="293"/>
      <point x="188" y="275"/>
    </contour>
    <contour>
      <point x="154" y="0" type="line"/>
      <point x="229" y="127"/>
      <point x="378" y="375"/>
      <point x="453" y="502" type="qcurve"/>
      <point x="493" y="502" type="line"/>
      <point x="418" y="375"/>
      <point x="269" y="127"/>
      <point x="194" y="0" type="qcurve"/>
    </contour>
  </outline>
</glyph>
<glyph name="ampersand" format="1">
  <advance width="673"/>
  <unicode hex="0026"/>
  <outline>
    <contour>
      <point x="647" y="37" type="line"/>
      <point x="647" y="0" type="line"/>
      <point x="555" y="0" type="line"/>
      <point x="546" y="11"/>
      <point x="535" y="25" type="qcurve"/>
      <point x="525" y="37"/>
      <point x="500" y="68"/>
      <point x="485" y="88" type="qcurve"/>
      <point x="456" y="46"/>
      <point x="346" y="-7"/>
      <point x="279" y="-7" type="qcurve"/>
      <point x="229" y="-7"/>
      <point x="145" y="24"/>
      <point x="84" y="78"/>
      <point x="50" y="150"/>
      <point x="50" y="192" type="qcurve"/>
      <point x="50" y="232"/>
      <point x="82" y="301"/>
      <point x="136" y="355"/>
      <point x="207" y="389"/>
      <point x="247" y="395" type="qcurve"/>
      <point x="217" y="434"/>
      <point x="177" y="488"/>
      <point x="173" y="496" type="qcurve"/>
      <point x="160" y="520"/>
      <point x="141" y="568"/>
      <point x="141" y="600" type="qcurve"/>
      <point x="141" y="634"/>
      <point x="167" y="690"/>
      <point x="210" y="729"/>
      <point x="268" y="751"/>
      <point x="301" y="751" type="qcurve"/>
      <point x="343" y="751"/>
      <point x="414" y="725"/>
      <point x="438" y="709" type="qcurve"/>
      <point x="437" y="707"/>
      <point x="422" y="686"/>
      <point x="420" y="684" type="qcurve"/>
      <point x="396" y="698"/>
      <point x="342" y="717"/>
      <point x="313" y="718" type="qcurve"/>
      <point x="286" y="719"/>
      <point x="237" y="703"/>
      <point x="200" y="672"/>
      <point x="178" y="628"/>
      <point x="178" y="600" type="qcurve"/>
      <point x="178" y="582"/>
      <point x="186" y="549"/>
      <point x="196" y="525"/>
      <point x="205" y="510"/>
      <point x="205" y="510" type="qcurve"/>
      <point x="480" y="152" type="line"/>
      <point x="572" y="397" type="line"/>
      <point x="610" y="397" type="line"/>
      <point x="504" y="120" type="line"/>
      <point x="568" y="37" type="line"/>
    </contour>
    <contour>
      <point x="272" y="362" type="qcurve"/>
      <point x="239" y="361"/>
      <point x="173" y="336"/>
      <point x="120" y="292"/>
      <point x="87" y="230"/>
      <point x="87" y="192" type="qcurve"/>
      <point x="87" y="154"/>
      <point x="119" y="93"/>
      <point x="172" y="50"/>
      <point x="242" y="27"/>
      <point x="281" y="27" type="qcurve"/>
      <point x="310" y="27"/>
      <point x="365" y="41"/>
      <point x="413" y="65"/>
      <point x="452" y="97"/>
      <point x="464" y="115" type="qcurve"/>
      <point x="420" y="171"/>
      <point x="317" y="303"/>
    </contour>
  </outline>
</glyph>
<glyph name="quotesingle" format="1">
  <advance width="193"/>
  <unicode hex="0027"/>
  <outline>
    <contour>
      <point x="78" y="474" type="line"/>
      <point x="78" y="723" type="line"/>
      <point x="117" y="723" type="line"/>
      <point x="113" y="474" type="line"/>
    </contour>
  </outline>
</glyph>
<glyph name="parenright" format="1">
  <advance width="266"/>
  <unicode hex="0029"/>
  <outline>
    <contour>
      <point x="217" y="292" type="qcurve"/>
      <point x="217" y="217"/>
      <point x="189" y="80"/>
      <point x="142" y="-37"/>
      <point x="82" y="-132"/>
      <point x="51" y="-165" type="qcurve"/>
      <point x="26" y="-142" type="line"/>
      <point x="55" y="-109"/>
      <point x="110" y="-19"/>
      <point x="154" y="91"/>
      <point x="180" y="219"/>
      <point x="180" y="291" type="qcurve"/>
      <point x="180" y="363"/>
      <point x="154" y="491"/>
      <point x="110" y="602"/>
      <point x="55" y="692"/>
      <point x="26" y="725" type="qcurve"/>
      <point x="51" y="749" type="line"/>
      <point x="82" y="715"/>
      <point x="142" y="621"/>
      <point x="189" y="504"/>
      <point x="217" y="367"/>
    </contour>
  </outline>
</glyph>
<glyph name="slash" format="1">
  <advance width="402"/>
  <unicode hex="002F"/>
  <outline>
    <contour>
      <point x="43" y="-19" type="line"/>
      <point x="322" y="739" type="line"/>
      <point x="359" y="739" type="line"/>
      <point x="288" y="548"/>
      <point x="150" y="172"/>
      <point x="79" y="-19" type="qcurve"/>
    </contour>
  </outline>
</glyph>
<glyph name="zero" format="1">
  <advance width="666"/>
  <unicode hex="0030"/>
  <outline>
    <contour>
      <point x="63" y="329" type="qcurve"/>
      <point x="63" y="386"/>
      <point x="96" y="504"/>
      <point x="163" y="600"/>
      <point x="265" y="661"/>
      <point x="336" y="661" type="qcurve"/>
      <point x="406" y="661"/>
      <point x="508" y="597"/>
      <point x="573" y="500"/>
      <point x="603" y="381"/>
      <point x="602" y="325" type="qcurve"/>
      <point x="602" y="253"/>
      <point x="558" y="131"/>
      <point x="485" y="42"/>
      <point x="386" y="-7"/>
      <point x="330" y="-7" type="qcurve"/>
      <point x="275" y="-7"/>
      <point x="178" y="44"/>
      <point x="105" y="133"/>
      <point x="63" y="256"/>
    </contour>
    <contour>
      <point x="101" y="329" type="qcurve"/>
      <point x="100" y="262"/>
      <point x="138" y="152"/>
      <point x="202" y="72"/>
      <point x="286" y="28"/>
      <point x="331" y="28" type="qcurve"/>
      <point x="376" y="28"/>
      <point x="460" y="71"/>
      <point x="526" y="149"/>
      <point x="566" y="259"/>
      <point x="566" y="325" type="qcurve"/>
      <point x="566" y="388"/>
      <point x="534" y="497"/>
      <point x="473" y="578"/>
      <point x="387" y="625"/>
      <point x="335" y="625" type="qcurve"/>
      <point x="282" y="625"/>
      <point x="196" y="579"/>
      <point x="135" y="499"/>
      <point x="101" y="390"/>
    </contour>
  </outline>
</glyph>
<glyph name="two" format="1">
  <advance width="541"/>
  <unicode hex="0032"/>
  <outline>
    <contour>
      <point x="154" y="35" type="qcurve"/>
      <point x="446" y="35" type="line"/>
      <point x="446" y="149" type="line"/>
      <point x="483" y="149" type="line"/>
      <point x="483" y="0" type="line"/>
      <point x="65" y="0" type="line"/>
      <point x="129" y="62"/>
      <point x="249" y="183"/>
      <point x="342" y="296"/>
      <point x="398" y="402"/>
      <point x="398" y="449" type="qcurve"/>
      <point x="398" y="499"/>
      <point x="369" y="567"/>
      <point x="324" y="608"/>
      <point x="272" y="625"/>
      <point x="249" y="625" type="qcurve"/>
      <point x="203" y="625"/>
      <point x="144" y="592"/>
      <point x="110" y="544"/>
      <point x="97" y="489"/>
      <point x="97" y="466" type="qcurve"/>
      <point x="97" y="431"/>
      <point x="117" y="376"/>
      <point x="136" y="355" type="qcurve"/>
      <point x="114" y="333" type="line"/>
      <point x="88" y="357"/>
      <point x="60" y="426"/>
      <point x="60" y="466" type="qcurve"/>
      <point x="60" y="506"/>
      <point x="85" y="578"/>
      <point x="133" y="630"/>
      <point x="203" y="661"/>
      <point x="249" y="661" type="qcurve"/>
      <point x="290" y="661"/>
      <point x="358" y="630"/>
      <point x="407" y="576"/>
      <point x="434" y="503"/>
      <point x="434" y="461" type="qcurve"/>
      <point x="434" y="405"/>
      <point x="383" y="297"/>
      <point x="302" y="191"/>
      <point x="202" y="86"/>
    </contour>
  </outline>
</glyph>
<glyph name="three" format="1">
  <advance width="483"/>
  <unicode hex="0033"/>
  <outline>
    <contour>
      <point x="76" y="557" type="line"/>
      <point x="76" y="653" type="line"/>
      <point x="404" y="653" type="line"/>
      <point x="358" y="590"/>
      <point x="265" y="467"/>
      <point x="220" y="404" type="qcurve"/>
      <point x="262" y="402"/>
      <point x="335" y="369"/>
      <point x="389" y="315"/>
      <point x="420" y="243"/>
      <point x="420" y="200" type="qcurve"/>
      <point x="420" y="157"/>
      <point x="387" y="82"/>
      <point x="330" y="25"/>
      <point x="254" y="-8"/>
      <point x="211" y="-8" type="qcurve"/>
      <point x="164" y="-8"/>
      <point x="86" y="29"/>
      <point x="57" y="60" type="qcurve"/>
      <point x="84" y="87" type="line"/>
      <point x="106" y="61"/>
      <point x="170" y="27"/>
      <point x="208" y="27" type="qcurve"/>
      <point x="244" y="27"/>
      <point x="308" y="55"/>
      <point x="356" y="102"/>
      <point x="384" y="165"/>
      <point x="384" y="200" type="qcurve"/>
      <point x="384" y="236"/>
      <point x="356" y="299"/>
      <point x="308" y="345"/>
      <point x="244" y="372"/>
      <point x="208" y="372" type="qcurve"/>
      <point x="175" y="372"/>
      <point x="146" y="351" type="qcurve"/>
      <point x="194" y="418"/>
      <point x="291" y="550"/>
      <point x="339" y="617" type="qcurve"/>
      <point x="112" y="617" type="line"/>
      <point x="112" y="557" type="line"/>
    </contour>
  </outline>
</glyph>
<glyph name="four" format="1">
  <advance width="535"/>
  <unicode hex="0034"/>
  <outline>
    <contour>
      <point x="474" y="35" type="line"/>
      <point x="474" y="0" type="line"/>
      <point x="273" y="0" type="line"/>
      <point x="273" y="35" type="line"/>
      <point x="353" y="35" type="line"/>
      <point x="353" y="179" type="line"/>
      <point x="16" y="179" type="line"/>
      <point x="108" y="299"/>
      <point x="297" y="541"/>
      <point x="390" y="661" type="qcurve"/>
      <point x="390" y="215" type="line"/>
      <point x="487" y="215" type="line"/>
      <point x="487" y="179" type="line"/>
      <point x="390" y="179" type="line"/>
      <point x="390" y="35" type="line"/>
    </contour>
    <contour>
      <point x="353" y="560" type="line"/>
      <point x="289" y="475"/>
      <point x="153" y="299"/>
      <point x="88" y="215" type="qcurve"/>
      <point x="353" y="215" type="line"/>
    </contour>
  </outline>
</glyph>
<glyph name="nine" format="1">
  <advance width="534"/>
  <unicode hex="0039"/>
  <outline>
    <contour>
      <point x="475" y="430" type="qcurve"/>
      <point x="475" y="355"/>
      <point x="410" y="228"/>
      <point x="312" y="120"/>
      <point x="196" y="30"/>
      <point x="144" y="-8" type="qcurve"/>
      <point x="121" y="21" type="line"/>
      <point x="177" y="58"/>
      <point x="269" y="133"/>
      <point x="339" y="202"/>
      <point x="386" y="264"/>
      <point x="397" y="288" type="qcurve"/>
      <point x="374" y="259"/>
      <point x="307" y="223"/>
      <point x="266" y="223" type="qcurve"/>
      <point x="223" y="223"/>
      <point x="147" y="256"/>
      <point x="90" y="312"/>
      <point x="57" y="387"/>
      <point x="57" y="430" type="qcurve"/>
      <point x="57" y="473"/>
      <point x="90" y="548"/>
      <point x="147" y="604"/>
      <point x="223" y="637"/>
      <point x="266" y="637" type="qcurve"/>
      <point x="307" y="637"/>
      <point x="382" y="607"/>
      <point x="440" y="552"/>
      <point x="475" y="476"/>
    </contour>
    <contour>
      <point x="439" y="430" type="qcurve"/>
      <point x="439" y="466"/>
      <point x="412" y="528"/>
      <point x="365" y="574"/>
      <point x="303" y="601"/>
      <point x="267" y="601" type="qcurve"/>
      <point x="231" y="601"/>
      <point x="168" y="574"/>
      <point x="120" y="528"/>
      <point x="93" y="466"/>
      <point x="93" y="430" type="qcurve"/>
      <point x="93" y="394"/>
      <point x="121" y="332"/>
      <point x="168" y="285"/>
      <point x="231" y="258"/>
      <point x="267" y="258" type="qcurve"/>
      <point x="303" y="258"/>
      <point x="365" y="285"/>
      <point x="412" y="332"/>
      <point x="439" y="394"/>
    </contour>
  </outline>
</glyph>
<glyph name="colon" format="1">
  <advance width="197"/>
  <unicode hex="003A"/>
  <outline>
    <contour>
      <point x="68" y="287" type="qcurve"/>
      <point x="68" y="300"/>
      <point x="86" y="318"/>
      <point x="98" y="318" type="qcurve"/>
      <point x="110" y="318"/>
      <point x="128" y="300"/>
      <point x="128" y="287" type="qcurve"/>
      <point x="128" y="274"/>
      <point x="110" y="257"/>
      <point x="98" y="257" type="qcurve"/>
      <point x="86" y="257"/>
      <point x="68" y="274"/>
    </contour>
    <contour>
      <point x="68" y="30" type="qcurve"/>
      <point x="68" y="43"/>
      <point x="86" y="61"/>
      <point x="98" y="61" type="qcurve"/>
      <point x="110" y="61"/>
      <point x="128" y="43"/>
      <point x="128" y="30" type="qcurve"/>
      <point x="128" y="17"/>
      <point x="110" y="0"/>
      <point x="98" y="0" type="qcurve"/>
      <point x="86" y="0"/>
      <point x="68" y="17"/>
    </contour>
  </outline>
</glyph>
<glyph name="semicolon" format="1">
  <advance width="242"/>
  <unicode hex="003B"/>
  <outline>
    <contour>
      <point x="101" y="281" type="qcurve"/>
      <point x="101" y="294"/>
      <point x="119" y="312"/>
      <point x="131" y="312" type="qcurve"/>
      <point x="143" y="312"/>
      <point x="161" y="294"/>
      <point x="161" y="281" type="qcurve"/>
      <point x="161" y="268"/>
      <point x="143" y="251"/>
      <point x="131" y="251" type="qcurve"/>
      <point x="119" y="251"/>
      <point x="101" y="268"/>
    </contour>
    <contour>
      <point x="149" y="86" type="line"/>
      <point x="138" y="60"/>
      <point x="124" y="28"/>
      <point x="111" y="-1"/>
      <point x="97" y="-34"/>
      <point x="86" y="-60" type="qcurve"/>
      <point x="55" y="-60" type="line"/>
      <point x="65" y="-34"/>
      <point x="76" y="-1"/>
      <point x="87" y="28"/>
      <point x="99" y="60"/>
      <point x="109" y="86" type="qcurve"/>
    </contour>
  </outline>
</glyph>
<glyph name="question" format="1">
  <advance width="479"/>
  <unicode hex="003F"/>
  <outline>
    <contour>
      <point x="70" y="584" type="qcurve"/>
      <point x="37" y="595" type="line"/>
      <point x="46" y="622"/>
      <point x="79" y="672"/>
      <point x="127" y="711"/>
      <point x="190" y="735"/>
      <point x="228" y="735" type="qcurve"/>
      <point x="269" y="735"/>
      <point x="341" y="704"/>
      <point x="394" y="651"/>
      <point x="425" y="579"/>
      <point x="425" y="539" type="qcurve"/>
      <point x="425" y="485"/>
      <point x="372" y="402"/>
      <point x="326" y="370" type="qcurve"/>
      <point x="308" y="357"/>
      <point x="275" y="337"/>
      <point x="250" y="312"/>
      <point x="234" y="274"/>
      <point x="234" y="243" type="qcurve"/>
      <point x="234" y="165" type="line"/>
      <point x="198" y="165" type="line"/>
      <point x="198" y="262" type="line"/>
      <point x="198" y="293"/>
      <point x="220" y="332"/>
      <point x="255" y="361"/>
      <point x="301" y="389"/>
      <point x="325" y="410" type="qcurve"/>
      <point x="388" y="463"/>
      <point x="388" y="539" type="qcurve"/>
      <point x="388" y="573"/>
      <point x="364" y="632"/>
      <point x="321" y="675"/>
      <point x="262" y="699"/>
      <point x="228" y="699" type="qcurve"/>
      <point x="169" y="699"/>
      <point x="87" y="638"/>
    </contour>
    <contour>
      <point x="215" y="17" type="qcurve"/>
      <point x="204" y="17"/>
      <point x="186" y="34"/>
      <point x="186" y="47" type="qcurve"/>
      <point x="186" y="61"/>
      <point x="204" y="78"/>
      <point x="215" y="78" type="qcurve"/>
      <point x="226" y="78"/>
      <point x="245" y="61"/>
      <point x="245" y="47" type="qcurve"/>
      <point x="245" y="34"/>
      <point x="226" y="17"/>
    </contour>
  </outline>
</glyph>
<glyph name="D" format="1">
  <advance width="741"/>
  <unicode hex="0044"/>
  <outline>
    <contour>
      <point x="293" y="707" type="line"/>
      <point x="400" y="707"/>
      <point x="548" y="642"/>
      <point x="641" y="539"/>
      <point x="683" y="412"/>
      <point x="683" y="351" type="qcurve"/>
      <point x="683" y="270"/>
      <point x="626" y="141"/>
      <point x="529" y="49"/>
      <point x="400" y="0"/>
      <point x="328" y="0" type="qcurve"/>
      <point x="62" y="0" type="line"/>
      <point x="62" y="37" type="line"/>
      <point x="139" y="37" type="line"/>
      <point x="139" y="670" type="line"/>
      <point x="62" y="670" type="line"/>
      <point x="62" y="707" type="line"/>
    </contour>
    <contour>
      <point x="327" y="40" type="line"/>
      <point x="392" y="40"/>
      <point x="507" y="83"/>
      <point x="593" y="164"/>
      <point x="643" y="280"/>
      <point x="643" y="353" type="qcurve"/>
      <point x="643" y="412"/>
      <point x="602" y="525"/>
      <point x="519" y="613"/>
      <point x="393" y="666"/>
      <point x="308" y="666" type="qcurve"/>
      <point x="180" y="666" type="line"/>
      <point x="180" y="40" type="line"/>
    </contour>
  </outline>
</glyph>
<glyph name="I" format="1">
  <advance width="320"/>
  <unicode hex="0049"/>
  <outline>
    <contour>
      <point x="262" y="707" type="line"/>
      <point x="262" y="670" type="line"/>
      <point x="180" y="670" type="line"/>
      <point x="180" y="37" type="line"/>
      <point x="262" y="37" type="line"/>
      <point x="262" y="0" type="line"/>
      <point x="61" y="0" type="line"/>
      <point x="61" y="37" type="line"/>
      <point x="139" y="37" type="line"/>
      <point x="139" y="670" type="line"/>
      <point x="61" y="670" type="line"/>
      <point x="61" y="707" type="line"/>
    </contour>
  </outline>
</glyph>
<glyph name="J" format="1">
  <advance width="314"/>
  <unicode hex="004A"/>
  <outline>
    <contour>
      <point x="-8" y="-144" type="qcurve"/>
      <point x="-8" y="-105" type="line"/>
      <point x="28" y="-103"/>
      <point x="90" y="-74"/>
      <point x="135" y="-20"/>
      <point x="160" y="56"/>
      <point x="160" y="106" type="qcurve"/>
      <point x="160" y="670" type="line"/>
      <point x="59" y="670" type="line"/>
      <point x="59" y="707" type="line"/>
      <point x="201" y="707" type="line"/>
      <point x="201" y="103" type="line"/>
      <point x="201" y="44"/>
      <point x="169" y="-47"/>
      <point x="112" y="-109"/>
      <point x="36" y="-143"/>
    </contour>
  </outline>
</glyph>
<glyph name="L" format="1">
  <advance width="604"/>
  <unicode hex="004C"/>
  <outline>
    <contour>
      <point x="263" y="707" type="line"/>
      <point x="263" y="670" type="line"/>
      <point x="180" y="670" type="line"/>
      <point x="180" y="40" type="line"/>
      <point x="541" y="40" type="line"/>
      <point x="541" y="114" type="line"/>
      <point x="580" y="114" type="line"/>
      <point x="580" y="16" type="line"/>
      <point x="572" y="16" type="line"/>
      <point x="572" y="0" type="line"/>
      <point x="62" y="0" type="line"/>
      <point x="62" y="37" type="line"/>
      <point x="139" y="37" type="line"/>
      <point x="139" y="670" type="line"/>
      <point x="62" y="670" type="line"/>
      <point x="62" y="707" type="line"/>
    </contour>
  </outline>
</glyph>
<glyph name="M" format="1">
  <advance width="952"/>
  <unicode hex="004D"/>
  <outline>
    <contour>
      <point x="892" y="707" type="line"/>
      <point x="892" y="670" type="line"/>
      <point x="813" y="670" type="line"/>
      <point x="813" y="37" type="line"/>
      <point x="894" y="37" type="line"/>
      <point x="894" y="0" type="line"/>
      <point x="691" y="0" type="line"/>
      <point x="691" y="37" type="line"/>
      <point x="770" y="37" type="line"/>
      <point x="770" y="577" type="line"/>
      <point x="770" y="587"/>
      <point x="771" y="608"/>
      <point x="771" y="617" type="qcurve"/>
      <point x="736" y="569"/>
      <point x="657" y="454"/>
      <point x="578" y="337"/>
      <point x="505" y="227"/>
      <point x="476" y="184" type="qcurve"/>
      <point x="458" y="208"/>
      <point x="405" y="282"/>
      <point x="346" y="368"/>
      <point x="284" y="459"/>
      <point x="230" y="539"/>
      <point x="189" y="602"/>
      <point x="179" y="617" type="qcurve"/>
      <point x="179" y="608"/>
      <point x="181" y="587"/>
      <point x="181" y="577" type="qcurve"/>
      <point x="181" y="37" type="line"/>
      <point x="262" y="37" type="line"/>
      <point x="262" y="0" type="line"/>
      <point x="60" y="0" type="line"/>
      <point x="60" y="37" type="line"/>
      <point x="140" y="37" type="line"/>
      <point x="140" y="670" type="line"/>
      <point x="59" y="670" type="line"/>
      <point x="59" y="707" type="line"/>
      <point x="161" y="707" type="line"/>
      <point x="198" y="651"/>
      <point x="281" y="532"/>
      <point x="363" y="415"/>
      <point x="442" y="304"/>
      <point x="476" y="256" type="qcurve"/>
      <point x="488" y="273"/>
      <point x="528" y="332"/>
      <point x="580" y="408"/>
      <point x="640" y="495"/>
      <point x="702" y="584"/>
      <point x="763" y="670"/>
      <point x="790" y="707" type="qcurve"/>
    </contour>
  </outline>
</glyph>
<glyph name="P" format="1">
  <advance width="560"/>
  <unicode hex="0050"/>
  <outline>
    <contour>
      <point x="261" y="37" type="line"/>
      <point x="261" y="0" type="line"/>
      <point x="60" y="0" type="line"/>
      <point x="60" y="37" type="line"/>
      <point x="139" y="37" type="line"/>
      <point x="139" y="670" type="line"/>
      <point x="60" y="670" type="line"/>
      <point x="60" y="707" type="line"/>
      <point x="295" y="707" type="line"/>
      <point x="332" y="707"/>
      <point x="409" y="685"/>
      <point x="472" y="638"/>
      <point x="512" y="563"/>
      <point x="512" y="510" type="qcurve"/>
      <point x="512" y="471"/>
      <point x="487" y="397"/>
      <point x="433" y="338"/>
      <point x="348" y="303"/>
      <point x="289" y="303" type="qcurve"/>
      <point x="180" y="303" type="line"/>
      <point x="180" y="37" type="line"/>
    </contour>
    <contour>
      <point x="180" y="343" type="line"/>
      <point x="290" y="343" type="line"/>
      <point x="343" y="343"/>
      <point x="413" y="377"/>
      <point x="454" y="428"/>
      <point x="471" y="487"/>
      <point x="471" y="511" type="qcurve"/>
      <point x="471" y="544"/>
      <point x="446" y="601"/>
      <point x="399" y="644"/>
      <point x="332" y="668"/>
      <point x="291" y="668" type="qcurve"/>
      <point x="180" y="668" type="line"/>
    </contour>
  </outline>
</glyph>
<glyph name="Q" format="1">
  <advance width="840"/>
  <unicode hex="0051"/>
  <outline>
    <contour>
      <point x="56" y="353" type="qcurve"/>
      <point x="56" y="428"/>
      <point x="113" y="559"/>
      <point x="211" y="658"/>
      <point x="342" y="715"/>
      <point x="417" y="715" type="qcurve"/>
      <point x="492" y="715"/>
      <point x="624" y="658"/>
      <point x="723" y="559"/>
      <point x="780" y="428"/>
      <point x="780" y="353" type="qcurve"/>
      <point x="780" y="301"/>
      <point x="751" y="205"/>
      <point x="699" y="123"/>
      <point x="626" y="58"/>
      <point x="583" y="37" type="qcurve"/>
      <point x="802" y="40" type="line"/>
      <point x="802" y="0" type="line"/>
      <point x="492" y="0" type="line"/>
      <point x="452" y="-8"/>
      <point x="417" y="-8" type="qcurve"/>
      <point x="342" y="-8"/>
      <point x="211" y="49"/>
      <point x="113" y="147"/>
      <point x="56" y="278"/>
    </contour>
    <contour>
      <point x="98" y="352" type="qcurve"/>
      <point x="98" y="286"/>
      <point x="148" y="169"/>
      <point x="234" y="82"/>
      <point x="350" y="31"/>
      <point x="416" y="31" type="qcurve"/>
      <point x="482" y="31"/>
      <point x="599" y="82"/>
      <point x="688" y="169"/>
      <point x="739" y="286"/>
      <point x="739" y="353" type="qcurve"/>
      <point x="739" y="419"/>
      <point x="688" y="537"/>
      <point x="600" y="624"/>
      <point x="483" y="675"/>
      <point x="417" y="675" type="qcurve"/>
      <point x="351" y="675"/>
      <point x="235" y="624"/>
      <point x="148" y="536"/>
      <point x="98" y="419"/>
    </contour>
  </outline>
</glyph>
<glyph name="T" format="1">
  <advance width="547"/>
  <unicode hex="0054"/>
  <outline>
    <contour>
      <point x="459" y="572" type="line"/>
      <point x="459" y="667" type="line"/>
      <point x="294" y="667" type="line"/>
      <point x="294" y="0" type="line"/>
      <point x="253" y="0" type="line"/>
      <point x="253" y="667" type="line"/>
      <point x="88" y="667" type="line"/>
      <point x="88" y="572" type="line"/>
      <point x="49" y="572" type="line"/>
      <point x="49" y="707" type="line"/>
      <point x="498" y="707" type="line"/>
      <point x="498" y="572" type="line"/>
    </contour>
  </outline>
</glyph>
<glyph name="V" format="1">
  <advance width="721"/>
  <unicode hex="0056"/>
  <outline>
    <contour>
      <point x="713" y="707" type="line"/>
      <point x="713" y="670" type="line"/>
      <point x="645" y="670" type="line"/>
      <point x="361" y="-32" type="line"/>
      <point x="76" y="670" type="line"/>
      <point x="0" y="670" type="line"/>
      <point x="0" y="707" type="line"/>
      <point x="201" y="707" type="line"/>
      <point x="201" y="670" type="line"/>
      <point x="118" y="670" type="line"/>
      <point x="351" y="85" type="line"/>
      <point x="353" y="79"/>
      <point x="355" y="74" type="qcurve"/>
      <point x="357" y="69"/>
      <point x="359" y="60"/>
      <point x="361" y="56" type="qcurve"/>
      <point x="362" y="60"/>
      <point x="365" y="69"/>
      <point x="367" y="74" type="qcurve"/>
      <point x="369" y="79"/>
      <point x="370" y="85" type="qcurve"/>
      <point x="603" y="670" type="line"/>
      <point x="522" y="670" type="line"/>
      <point x="522" y="707" type="line"/>
    </contour>
  </outline>
</glyph>
<glyph name="W" format="1">
  <advance width="1004"/>
  <unicode hex="0057"/>
  <outline>
    <contour>
      <point x="199" y="707" type="line"/>
      <point x="199" y="670" type="line"/>
      <point x="119" y="670" type="line"/>
      <point x="140" y="616"/>
      <point x="189" y="492"/>
      <point x="238" y="368"/>
      <point x="283" y="251"/>
      <point x="318" y="158"/>
      <point x="340" y="97"/>
      <point x="342" y="91" type="qcurve"/>
      <point x="351" y="63" type="line"/>
      <point x="351" y="65"/>
      <point x="358" y="88"/>
      <point x="359" y="90" type="qcurve"/>
      <point x="359" y="91"/>
      <point x="370" y="123"/>
      <point x="387" y="172"/>
      <point x="409" y="235"/>
      <point x="420" y="267" type="qcurve"/>
      <point x="480" y="439" type="line"/>
      <point x="453" y="511"/>
      <point x="432" y="568" type="qcurve"/>
      <point x="423" y="592"/>
      <point x="406" y="640"/>
      <point x="392" y="678"/>
      <point x="383" y="704"/>
      <point x="382" y="706" type="qcurve"/>
      <point x="423" y="706" type="line"/>
      <point x="471" y="580"/>
      <point x="514" y="464" type="qcurve"/>
      <point x="532" y="414"/>
      <point x="571" y="310"/>
      <point x="607" y="211"/>
      <point x="638" y="124"/>
      <point x="649" y="91" type="qcurve"/>
      <point x="652" y="84"/>
      <point x="656" y="70"/>
      <point x="658" y="63" type="qcurve"/>
      <point x="660" y="70"/>
      <point x="666" y="89"/>
      <point x="666" y="91" type="qcurve"/>
      <point x="668" y="98"/>
      <point x="693" y="166"/>
      <point x="731" y="268"/>
      <point x="780" y="395"/>
      <point x="832" y="527"/>
      <point x="883" y="655"/>
      <point x="905" y="707" type="qcurve"/>
      <point x="993" y="707" type="line"/>
      <point x="993" y="670" type="line"/>
      <point x="933" y="670" type="line"/>
      <point x="911" y="616"/>
      <point x="855" y="478"/>
      <point x="797" y="330"/>
      <point x="741" y="184"/>
      <point x="694" y="64"/>
      <point x="662" y="-20"/>
      <point x="658" y="-32" type="qcurve"/>
      <point x="506" y="369" type="line"/>
      <point x="499" y="391" type="line"/>
      <point x="499" y="389"/>
      <point x="495" y="379" type="qcurve"/>
      <point x="493" y="375"/>
      <point x="492" y="369" type="qcurve"/>
      <point x="460" y="285"/>
      <point x="433" y="208" type="qcurve"/>
      <point x="421" y="175"/>
      <point x="397" y="107"/>
      <point x="374" y="43"/>
      <point x="355" y="-12"/>
      <point x="349" y="-32" type="qcurve"/>
      <point x="319" y="37"/>
      <point x="253" y="207"/>
      <point x="183" y="391"/>
      <point x="110" y="580"/>
      <point x="74" y="670" type="qcurve"/>
      <point x="-2" y="670" type="line"/>
      <point x="-2" y="707" type="line"/>
    </contour>
  </outline>
</glyph>
<glyph name="bracketleft" format="1">
  <advance width="304"/>
  <unicode hex="005B"/>
  <outline>
    <contour>
      <point x="99" y="-150" type="line"/>
      <point x="99" y="749" type="line"/>
      <point x="272" y="749" type="line"/>
      <point x="272" y="713" type="line"/>
      <point x="137" y="713" type="line"/>
      <point x="137" y="-114" type="line"/>
      <point x="272" y="-114" type="line"/>
      <point x="272" y="-150" type="line"/>
    </contour>
  </outline>
</glyph>
<glyph name="bracketright" format="1">
  <advance width="304"/>
  <unicode hex="005D"/>
  <outline>
    <contour>
      <point x="205" y="749" type="line"/>
      <point x="205" y="-150" type="line"/>
      <point x="32" y="-150" type="line"/>
      <point x="32" y="-114" type="line"/>
      <point x="167" y="-114" type="line"/>
      <point x="167" y="713" type="line"/>
      <point x="32" y="713" type="line"/>
      <point x="32" y="749" type="line"/>
    </contour>
  </outline>
</glyph>
<glyph name="grave" format="1">
  <advance width="201"/>
  <unicode hex="0060"/>
  <outline>
    <contour>
      <point x="12" y="614" type="line"/>
      <point x="102" y="481" type="line"/>
      <point x="73" y="481" type="line"/>
      <point x="-26" y="614" type="line"/>
    </contour>
  </outline>
</glyph>
<glyph name="b" format="1">
  <advance width="540"/>
  <unicode hex="0062"/>
  <outline>
    <contour>
      <point x="18" y="727" type="line"/>
      <point x="18" y="758" type="line"/>
      <point x="127" y="758" type="line"/>
      <point x="127" y="288" type="line"/>
      <point x="147" y="333"/>
      <point x="238" y="396"/>
      <point x="298" y="396" type="qcurve"/>
      <point x="340" y="396"/>
      <point x="413" y="365"/>
      <point x="467" y="311"/>
      <point x="498" y="237"/>
      <point x="498" y="194" type="qcurve"/>
      <point x="498" y="152"/>
      <point x="467" y="78"/>
      <point x="413" y="24"/>
      <point x="340" y="-7"/>
      <point x="297" y="-7" type="qcurve"/>
      <point x="237" y="-7"/>
      <point x="145" y="54"/>
      <point x="126" y="99" type="qcurve"/>
      <point x="126" y="86"/>
      <point x="127" y="61"/>
      <point x="127" y="48" type="qcurve"/>
      <point x="127" y="0" type="line"/>
      <point x="18" y="0" type="line"/>
      <point x="18" y="31" type="line"/>
      <point x="92" y="31" type="line"/>
      <point x="92" y="727" type="line"/>
    </contour>
    <contour>
      <point x="461" y="194" type="qcurve"/>
      <point x="461" y="229"/>
      <point x="436" y="291"/>
      <point x="391" y="336"/>
      <point x="331" y="362"/>
      <point x="295" y="362" type="qcurve"/>
      <point x="260" y="362"/>
      <point x="198" y="336"/>
      <point x="153" y="291"/>
      <point x="127" y="229"/>
      <point x="127" y="194" type="qcurve"/>
      <point x="127" y="159"/>
      <point x="153" y="98"/>
      <point x="198" y="53"/>
      <point x="260" y="27"/>
      <point x="295" y="27" type="qcurve"/>
      <point x="331" y="27"/>
      <point x="391" y="53"/>
      <point x="436" y="98"/>
      <point x="461" y="159"/>
    </contour>
  </outline>
</glyph>
<glyph name="e" format="1">
  <advance width="442"/>
  <unicode hex="0065"/>
  <outline>
    <contour>
      <point x="384" y="47" type="line"/>
      <point x="357" y="22"/>
      <point x="284" y="-7"/>
      <point x="243" y="-7" type="qcurve"/>
      <point x="200" y="-7"/>
      <point x="126" y="25"/>
      <point x="72" y="79"/>
      <point x="41" y="152"/>
      <point x="41" y="194" type="qcurve"/>
      <point x="41" y="236"/>
      <point x="73" y="310"/>
      <point x="127" y="365"/>
      <point x="200" y="397"/>
      <point x="242" y="397" type="qcurve"/>
      <point x="306" y="397"/>
      <point x="397" y="322"/>
      <point x="419" y="264" type="qcurve"/>
      <point x="383" y="250"/>
      <point x="299" y="216"/>
      <point x="211" y="180"/>
      <point x="125" y="145"/>
      <point x="87" y="130" type="qcurve"/>
      <point x="106" y="84"/>
      <point x="189" y="27"/>
      <point x="242" y="27" type="qcurve"/>
      <point x="276" y="27"/>
      <point x="336" y="51"/>
      <point x="358" y="72" type="qcurve"/>
    </contour>
    <contour>
      <point x="375" y="274" type="qcurve"/>
      <point x="357" y="314"/>
      <point x="288" y="362"/>
      <point x="242" y="362" type="qcurve"/>
      <point x="207" y="362"/>
      <point x="146" y="335"/>
      <point x="101" y="290"/>
      <point x="75" y="229"/>
      <point x="75" y="195" type="qcurve"/>
      <point x="75" y="184"/>
      <point x="78" y="164"/>
      <point x="80" y="154" type="qcurve"/>
      <point x="114" y="168"/>
      <point x="190" y="199"/>
      <point x="267" y="230"/>
      <point x="342" y="260"/>
    </contour>
  </outline>
</glyph>
<glyph name="f" format="1">
  <advance width="289"/>
  <unicode hex="0066"/>
  <outline>
    <contour>
      <point x="136" y="356" type="line"/>
      <point x="136" y="31" type="line"/>
      <point x="236" y="31" type="line"/>
      <point x="236" y="0" type="line"/>
      <point x="27" y="0" type="line"/>
      <point x="27" y="31" type="line"/>
      <point x="101" y="31" type="line"/>
      <point x="101" y="356" type="line"/>
      <point x="34" y="356" type="line"/>
      <point x="34" y="388" type="line"/>
      <point x="101" y="388" type="line"/>
      <point x="101" y="517" type="line"/>
      <point x="101" y="575"/>
      <point x="131" y="664"/>
      <point x="185" y="725"/>
      <point x="258" y="756"/>
      <point x="301" y="758" type="qcurve"/>
      <point x="301" y="727" type="line"/>
      <point x="265" y="726"/>
      <point x="205" y="697"/>
      <point x="161" y="643"/>
      <point x="136" y="567"/>
      <point x="136" y="520" type="qcurve"/>
      <point x="136" y="388" type="line"/>
      <point x="266" y="388" type="line"/>
      <point x="266" y="356" type="line"/>
    </contour>
  </outline>
</glyph>
<glyph name="i" format="1">
  <advance width="234"/>
  <unicode hex="0069"/>
  <outline>
    <contour>
      <point x="138" y="387" type="line"/>
      <point x="138" y="31" type="line"/>
      <point x="214" y="31" type="line"/>
      <point x="214" y="0" type="line"/>
      <point x="29" y="0" type="line"/>
      <point x="29" y="31" type="line"/>
      <point x="103" y="31" type="line"/>
      <point x="103" y="356" type="line"/>
      <point x="29" y="356" type="line"/>
      <point x="29" y="387" type="line"/>
    </contour>
    <contour>
      <point x="91" y="522" type="qcurve"/>
      <point x="91" y="535"/>
      <point x="109" y="553"/>
      <point x="121" y="553" type="qcurve"/>
      <point x="132" y="553"/>
      <point x="150" y="535"/>
      <point x="150" y="522" type="qcurve"/>
      <point x="150" y="509"/>
      <point x="132" y="492"/>
      <point x="121" y="492" type="qcurve"/>
      <point x="109" y="492"/>
      <point x="91" y="509"/>
    </contour>
  </outline>
</glyph>
<glyph name="j" format="1">
  <advance width="194"/>
  <unicode hex="006A"/>
  <outline>
    <contour>
      <point x="46" y="-186" type="qcurve"/>
      <point x="21" y="-162" type="line"/>
      <point x="47" y="-135"/>
      <point x="77" y="-58"/>
      <point x="77" y="-7" type="qcurve"/>
      <point x="77" y="356" type="line"/>
      <point x="3" y="356" type="line"/>
      <point x="3" y="387" type="line"/>
      <point x="112" y="387" type="line"/>
      <point x="112" y="-5" type="line"/>
      <point x="112" y="-65"/>
      <point x="76" y="-156"/>
    </contour>
    <contour>
      <point x="65" y="522" type="qcurve"/>
      <point x="65" y="535"/>
      <point x="84" y="553"/>
      <point x="95" y="553" type="qcurve"/>
      <point x="107" y="553"/>
      <point x="125" y="535"/>
      <point x="125" y="522" type="qcurve"/>
      <point x="125" y="509"/>
      <point x="107" y="492"/>
      <point x="95" y="492" type="qcurve"/>
      <point x="84" y="492"/>
      <point x="65" y="509"/>
    </contour>
  </outline>
</glyph>
<glyph name="k" format="1">
  <advance width="449"/>
  <unicode hex="006B"/>
  <outline>
    <contour>
      <point x="128" y="148" type="line"/>
      <point x="128" y="31" type="line"/>
      <point x="204" y="31" type="line"/>
      <point x="204" y="0" type="line"/>
      <point x="19" y="0" type="line"/>
      <point x="19" y="31" type="line"/>
      <point x="93" y="31" type="line"/>
      <point x="93" y="727" type="line"/>
      <point x="19" y="727" type="line"/>
      <point x="19" y="758" type="line"/>
      <point x="128" y="758" type="line"/>
      <point x="128" y="192" type="line"/>
      <point x="318" y="370" type="line"/>
      <point x="264" y="370" type="line"/>
      <point x="264" y="395" type="line"/>
      <point x="411" y="395" type="line"/>
      <point x="411" y="370" type="line"/>
      <point x="362" y="370" type="line"/>
      <point x="332" y="341"/>
      <point x="260" y="272"/>
      <point x="223" y="237" type="qcurve"/>
      <point x="260" y="185"/>
      <point x="335" y="82"/>
      <point x="373" y="31" type="qcurve"/>
      <point x="436" y="31" type="line"/>
      <point x="436" y="0" type="line"/>
      <point x="354" y="0" type="line"/>
      <point x="354" y="1" type="line"/>
      <point x="314" y="55"/>
      <point x="235" y="160"/>
      <point x="197" y="214" type="qcurve"/>
    </contour>
  </outline>
</glyph>
<glyph name="m" format="1">
  <advance width="796"/>
  <unicode hex="006D"/>
  <outline>
    <contour>
      <point x="422" y="221" type="qcurve"/>
      <point x="422" y="31" type="line"/>
      <point x="496" y="31" type="line"/>
      <point x="496" y="0" type="line"/>
      <point x="312" y="0" type="line"/>
      <point x="312" y="31" type="line"/>
      <point x="388" y="31" type="line"/>
      <point x="388" y="274" type="line"/>
      <point x="386" y="309"/>
      <point x="339" y="359"/>
      <point x="295" y="361" type="qcurve"/>
      <point x="262" y="361"/>
      <point x="205" y="339"/>
      <point x="163" y="301"/>
      <point x="138" y="247"/>
      <point x="138" y="216" type="qcurve"/>
      <point x="138" y="31" type="line"/>
      <point x="214" y="31" type="line"/>
      <point x="214" y="0" type="line"/>
      <point x="29" y="0" type="line"/>
      <point x="29" y="31" type="line"/>
      <point x="103" y="31" type="line"/>
      <point x="103" y="356" type="line"/>
      <point x="29" y="356" type="line"/>
      <point x="29" y="387" type="line"/>
      <point x="132" y="387" type="line"/>
      <point x="132" y="383"/>
      <point x="133" y="353"/>
      <point x="134" y="319"/>
      <point x="135" y="290"/>
      <point x="135" y="287" type="qcurve"/>
      <point x="156" y="335"/>
      <point x="240" y="395"/>
      <point x="299" y="395" type="qcurve"/>
      <point x="351" y="395"/>
      <point x="416" y="338"/>
      <point x="421" y="292" type="qcurve"/>
      <point x="443" y="338"/>
      <point x="526" y="395"/>
      <point x="583" y="395" type="qcurve"/>
      <point x="640" y="395"/>
      <point x="705" y="331"/>
      <point x="707" y="280" type="qcurve"/>
      <point x="707" y="31" type="line"/>
      <point x="781" y="31" type="line"/>
      <point x="781" y="0" type="line"/>
      <point x="597" y="0" type="line"/>
      <point x="597" y="31" type="line"/>
      <point x="672" y="31" type="line"/>
      <point x="672" y="274" type="line"/>
      <point x="670" y="309"/>
      <point x="624" y="359"/>
      <point x="580" y="361" type="qcurve"/>
      <point x="548" y="361"/>
      <point x="491" y="340"/>
      <point x="449" y="303"/>
      <point x="423" y="252"/>
    </contour>
  </outline>
</glyph>
<glyph name="t" format="1">
  <advance width="263"/>
  <unicode hex="0074"/>
  <outline>
    <contour>
      <point x="133" y="350" type="line"/>
      <point x="133" y="31" type="line"/>
      <point x="226" y="31" type="line"/>
      <point x="226" y="0" type="line"/>
      <point x="98" y="0" type="line"/>
      <point x="98" y="350" type="line"/>
      <point x="14" y="350" type="line"/>
      <point x="14" y="381" type="line"/>
      <point x="98" y="381" type="line"/>
      <point x="98" y="557" type="line"/>
      <point x="133" y="557" type="line"/>
      <point x="133" y="381" type="line"/>
      <point x="256" y="381" type="line"/>
      <point x="256" y="350" type="line"/>
    </contour>
  </outline>
</glyph>
<glyph name="v" format="1">
  <advance width="470"/>
  <unicode hex="0076"/>
  <outline>
    <contour>
      <point x="5" y="388" type="line"/>
      <point x="156" y="388" type="line"/>
      <point x="156" y="357" type="line"/>
      <point x="98" y="357" type="line"/>
      <point x="108" y="335"/>
      <point x="136" y="272"/>
      <point x="167" y="203"/>
      <point x="197" y="135"/>
      <point x="221" y="81"/>
      <point x="236" y="46"/>
      <point x="236" y="45" type="qcurve"/>
      <point x="236" y="46"/>
      <point x="250" y="80"/>
      <point x="274" y="135"/>
      <point x="303" y="202"/>
      <point x="334" y="271"/>
      <point x="362" y="334"/>
      <point x="372" y="356" type="qcurve"/>
      <point x="326" y="356" type="line"/>
      <point x="326" y="388" type="line"/>
      <point x="462" y="388" type="line"/>
      <point x="462" y="356" type="line"/>
      <point x="410" y="356" type="line"/>
      <point x="399" y="332"/>
      <point x="367" y="262"/>
      <point x="330" y="182"/>
      <point x="293" y="100"/>
      <point x="262" y="32"/>
      <point x="239" y="-17"/>
      <point x="236" y="-23" type="qcurve"/>
      <point x="232" y="-17"/>
      <point x="209" y="32"/>
      <point x="178" y="101"/>
      <point x="140" y="183"/>
      <point x="104" y="263"/>
      <point x="72" y="334"/>
      <point x="61" y="357" type="qcurve"/>
      <point x="5" y="357" type="line"/>
    </contour>
  </outline>
</glyph>
<glyph name="braceleft" format="1">
  <advance width="290"/>
  <unicode hex="007B"/>
  <outline>
    <contour>
      <point x="35" y="278" type="qcurve"/>
      <point x="35" y="321" type="line"/>
      <point x="59" y="322"/>
      <point x="90" y="349"/>
      <point x="108" y="389"/>
      <point x="115" y="436"/>
      <point x="115" y="456" type="qcurve"/>
      <point x="115" y="631" type="line"/>
      <point x="115" y="677"/>
      <point x="131" y="725"/>
      <point x="158" y="746"/>
      <point x="192" y="749"/>
      <point x="211" y="749" type="qcurve"/>
      <point x="257" y="749" type="line"/>
      <point x="257" y="713" type="line"/>
      <point x="204" y="713" type="line"/>
      <point x="172" y="713"/>
      <point x="151" y="666"/>
      <point x="151" y="604" type="qcurve"/>
      <point x="151" y="460" type="line"/>
      <point x="151" y="418"/>
      <point x="140" y="363"/>
      <point x="121" y="327"/>
      <point x="97" y="307"/>
      <point x="85" y="300" type="qcurve"/>
      <point x="97" y="293"/>
      <point x="121" y="272"/>
      <point x="140" y="236"/>
      <point x="151" y="181"/>
      <point x="151" y="140" type="qcurve"/>
      <point x="151" y="-4" type="line"/>
      <point x="151" y="-66"/>
      <point x="172" y="-113"/>
      <point x="204" y="-113" type="qcurve"/>
      <point x="257" y="-113" type="line"/>
      <point x="257" y="-149" type="line"/>
      <point x="211" y="-149" type="line"/>
      <point x="190" y="-149"/>
      <point x="155" y="-146"/>
      <point x="129" y="-120"/>
      <point x="115" y="-62"/>
      <point x="115" y="-6" type="qcurve"/>
      <point x="115" y="143" type="line"/>
      <point x="115" y="163"/>
      <point x="108" y="210"/>
      <point x="90" y="250"/>
      <point x="59" y="277"/>
    </contour>
  </outline>
</glyph>
<glyph name="cent" format="1">
  <advance width="434"/>
  <unicode hex="00A2"/>
  <outline>
    <contour>
      <point x="376" y="352" type="qcurve"/>
      <point x="376" y="290" type="line"/>
      <point x="346" y="290" type="line"/>
      <point x="346" y="331" type="line"/>
      <point x="304" y="360"/>
      <point x="250" y="362" type="qcurve"/>
      <point x="250" y="27" type="line"/>
      <point x="279" y="27"/>
      <point x="334" y="46"/>
      <point x="355" y="63" type="qcurve"/>
      <point x="361" y="57"/>
      <point x="372" y="44"/>
      <point x="377" y="37" type="qcurve"/>
      <point x="324" y="-5"/>
      <point x="250" y="-7" type="qcurve"/>
      <point x="250" y="-68" type="line"/>
      <point x="222" y="-68" type="line"/>
      <point x="222" y="-5" type="line"/>
      <point x="183" y="-1"/>
      <point x="119" y="33"/>
      <point x="72" y="87"/>
      <point x="46" y="155"/>
      <point x="46" y="194" type="qcurve"/>
      <point x="46" y="233"/>
      <point x="73" y="301"/>
      <point x="120" y="355"/>
      <point x="184" y="389"/>
      <point x="222" y="394" type="qcurve"/>
      <point x="222" y="452" type="line"/>
      <point x="250" y="452" type="line"/>
      <point x="250" y="396" type="line"/>
      <point x="286" y="395"/>
      <point x="350" y="372"/>
    </contour>
    <contour>
      <point x="80" y="194" type="qcurve"/>
      <point x="80" y="162"/>
      <point x="101" y="106"/>
      <point x="139" y="62"/>
      <point x="191" y="32"/>
      <point x="222" y="28" type="qcurve"/>
      <point x="222" y="360" type="line"/>
      <point x="191" y="355"/>
      <point x="139" y="326"/>
      <point x="101" y="282"/>
      <point x="80" y="226"/>
    </contour>
  </outline>
</glyph>
<glyph name="sterling" format="1">
  <advance width="579"/>
  <unicode hex="00A3"/>
  <outline>
    <contour>
      <point x="155" y="35" type="qcurve"/>
      <point x="379" y="35" type="line"/>
      <point x="441" y="35"/>
      <point x="489" y="57"/>
      <point x="489" y="88" type="qcurve"/>
      <point x="489" y="141" type="line"/>
      <point x="525" y="141" type="line"/>
      <point x="525" y="86" type="line"/>
      <point x="525" y="69"/>
      <point x="521" y="38"/>
      <point x="498" y="14"/>
      <point x="450" y="0"/>
      <point x="407" y="0" type="qcurve"/>
      <point x="45" y="0" type="line"/>
      <point x="45" y="35" type="line"/>
      <point x="89" y="35" type="line"/>
      <point x="106" y="35"/>
      <point x="127" y="47"/>
      <point x="138" y="78"/>
      <point x="141" y="130"/>
      <point x="141" y="170" type="qcurve"/>
      <point x="141" y="300" type="line"/>
      <point x="76" y="300" type="line"/>
      <point x="76" y="336" type="line"/>
      <point x="141" y="336" type="line"/>
      <point x="141" y="512" type="line"/>
      <point x="141" y="583"/>
      <point x="238" y="655"/>
      <point x="316" y="655" type="qcurve"/>
      <point x="384" y="655"/>
      <point x="460" y="604"/>
      <point x="481" y="562" type="qcurve"/>
      <point x="474" y="557"/>
      <point x="461" y="550"/>
      <point x="454" y="546" type="qcurve"/>
      <point x="443" y="564"/>
      <point x="421" y="591"/>
      <point x="390" y="610"/>
      <point x="347" y="619"/>
      <point x="317" y="619" type="qcurve"/>
      <point x="278" y="619"/>
      <point x="225" y="602"/>
      <point x="192" y="572"/>
      <point x="178" y="531"/>
      <point x="178" y="508" type="qcurve"/>
      <point x="178" y="336" type="line"/>
      <point x="304" y="336" type="line"/>
      <point x="304" y="300" type="line"/>
      <point x="178" y="300" type="line"/>
      <point x="178" y="127" type="line"/>
      <point x="178" y="98"/>
      <point x="170" y="49"/>
    </contour>
  </outline>
</glyph>
<glyph name="currency" format="1">
  <advance width="458"/>
  <unicode hex="00A4"/>
  <outline>
    <contour>
      <point x="91" y="361" type="qcurve"/>
      <point x="91" y="385"/>
      <point x="107" y="428"/>
      <point x="121" y="446" type="qcurve"/>
      <point x="86" y="481" type="line"/>
      <point x="106" y="501" type="line"/>
      <point x="141" y="466" type="line"/>
      <point x="159" y="481"/>
      <point x="203" y="499"/>
      <point x="229" y="499" type="qcurve"/>
      <point x="255" y="499"/>
      <point x="300" y="481"/>
      <point x="317" y="465" type="qcurve"/>
      <point x="352" y="500" type="line"/>
      <point x="372" y="481" type="line"/>
      <point x="337" y="446" type="line"/>
      <point x="367" y="410"/>
      <point x="367" y="361" type="qcurve"/>
      <point x="367" y="335"/>
      <point x="349" y="291"/>
      <point x="335" y="273" type="qcurve"/>
      <point x="372" y="235" type="line"/>
      <point x="352" y="215" type="line"/>
      <point x="314" y="253" type="line"/>
      <point x="278" y="223"/>
      <point x="229" y="223" type="qcurve"/>
      <point x="205" y="223"/>
      <point x="161" y="238"/>
      <point x="144" y="252" type="qcurve"/>
      <point x="106" y="214" type="line"/>
      <point x="86" y="234" type="line"/>
      <point x="124" y="272" type="line"/>
      <point x="91" y="310"/>
    </contour>
    <contour>
      <point x="119" y="361" type="qcurve"/>
      <point x="119" y="338"/>
      <point x="136" y="298"/>
      <point x="166" y="268"/>
      <point x="206" y="250"/>
      <point x="229" y="250" type="qcurve"/>
      <point x="252" y="250"/>
      <point x="292" y="268"/>
      <point x="322" y="298"/>
      <point x="339" y="338"/>
      <point x="339" y="361" type="qcurve"/>
      <point x="339" y="384"/>
      <point x="322" y="424"/>
      <point x="292" y="454"/>
      <point x="252" y="472"/>
      <point x="229" y="472" type="qcurve"/>
      <point x="206" y="472"/>
      <point x="166" y="454"/>
      <point x="136" y="424"/>
      <point x="119" y="384"/>
    </contour>
  </outline>
</glyph>
<glyph name="brokenbar" format="1">
  <advance width="236"/>
  <unicode hex="00A6"/>
  <outline>
    <contour>
      <point x="136" y="-234" type="line"/>
      <point x="100" y="-234" type="line"/>
      <point x="100" y="117" type="line"/>
      <point x="136" y="117" type="line"/>
    </contour>
    <contour>
      <point x="136" y="351" type="line"/>
      <point x="100" y="351" type="line"/>
      <point x="100" y="703" type="line"/>
      <point x="136" y="703" type="line"/>
    </contour>
  </outline>
</glyph>
<glyph name="section" format="1">
  <advance width="367"/>
  <unicode hex="00A7"/>
  <outline>
    <contour>
      <point x="164" y="153" type="qcurve"/>
      <point x="131" y="207"/>
      <point x="95" y="272"/>
      <point x="79" y="298" type="qcurve"/>
      <point x="67" y="319"/>
      <point x="60" y="367"/>
      <point x="70" y="412"/>
      <point x="96" y="452"/>
      <point x="116" y="465" type="qcurve"/>
      <point x="139" y="479"/>
      <point x="192" y="482"/>
      <point x="216" y="472" type="qcurve"/>
      <point x="201" y="496"/>
      <point x="174" y="544"/>
      <point x="160" y="569" type="qcurve"/>
      <point x="144" y="596"/>
      <point x="130" y="636"/>
      <point x="130" y="666"/>
      <point x="140" y="687"/>
      <point x="149" y="695" type="qcurve"/>
      <point x="161" y="710"/>
      <point x="205" y="733"/>
      <point x="222" y="743" type="qcurve"/>
      <point x="240" y="713" type="line"/>
      <point x="228" y="705"/>
      <point x="205" y="693"/>
      <point x="193" y="686" type="qcurve"/>
      <point x="167" y="671"/>
      <point x="171" y="622"/>
      <point x="200" y="573" type="qcurve"/>
      <point x="288" y="422" type="line"/>
      <point x="301" y="401"/>
      <point x="307" y="354"/>
      <point x="297" y="309"/>
      <point x="270" y="270"/>
      <point x="250" y="257" type="qcurve"/>
      <point x="227" y="243"/>
      <point x="174" y="239"/>
      <point x="150" y="249" type="qcurve"/>
      <point x="207" y="151" type="line"/>
      <point x="223" y="124"/>
      <point x="237" y="84"/>
      <point x="237" y="54"/>
      <point x="227" y="33"/>
      <point x="218" y="25" type="qcurve"/>
      <point x="206" y="9"/>
      <point x="163" y="-14"/>
      <point x="146" y="-23" type="qcurve"/>
      <point x="127" y="8" type="line"/>
      <point x="174" y="35" type="line"/>
      <point x="200" y="50"/>
      <point x="195" y="101"/>
    </contour>
    <contour>
      <point x="106" y="328" type="qcurve"/>
      <point x="115" y="301"/>
      <point x="164" y="272"/>
      <point x="192" y="274" type="qcurve"/>
      <point x="210" y="275"/>
      <point x="241" y="292"/>
      <point x="262" y="319"/>
      <point x="272" y="352"/>
      <point x="270" y="369" type="qcurve"/>
      <point x="266" y="408"/>
      <point x="208" y="452"/>
      <point x="174" y="450" type="qcurve"/>
      <point x="150" y="448"/>
      <point x="116" y="424"/>
      <point x="98" y="389"/>
      <point x="97" y="347"/>
    </contour>
  </outline>
</glyph>
<glyph name="copyright" format="1">
  <advance width="658"/>
  <unicode hex="00A9"/>
  <outline>
    <contour>
      <point x="329" y="117" type="qcurve"/>
      <point x="275" y="117"/>
      <point x="181" y="155"/>
      <point x="112" y="223"/>
      <point x="72" y="317"/>
      <point x="72" y="372" type="qcurve"/>
      <point x="72" y="427"/>
      <point x="112" y="521"/>
      <point x="181" y="590"/>
      <point x="275" y="628"/>
      <point x="329" y="628" type="qcurve"/>
      <point x="383" y="628"/>
      <point x="477" y="590"/>
      <point x="546" y="521"/>
      <point x="586" y="427"/>
      <point x="586" y="372" type="qcurve"/>
      <point x="586" y="317"/>
      <point x="546" y="223"/>
      <point x="477" y="155"/>
      <point x="383" y="117"/>
    </contour>
    <contour>
      <point x="328" y="135" type="qcurve"/>
      <point x="377" y="135"/>
      <point x="464" y="171"/>
      <point x="529" y="234"/>
      <point x="566" y="321"/>
      <point x="566" y="371" type="qcurve"/>
      <point x="566" y="423"/>
      <point x="529" y="510"/>
      <point x="464" y="574"/>
      <point x="377" y="610"/>
      <point x="328" y="610" type="qcurve"/>
      <point x="279" y="610"/>
      <point x="193" y="574"/>
      <point x="129" y="510"/>
      <point x="92" y="423"/>
      <point x="92" y="371" type="qcurve"/>
      <point x="92" y="321"/>
      <point x="129" y="234"/>
      <point x="193" y="171"/>
      <point x="279" y="135"/>
    </contour>
    <contour>
      <point x="404" y="474" type="line"/>
      <point x="404" y="506" type="line"/>
      <point x="389" y="514"/>
      <point x="355" y="521"/>
      <point x="338" y="521" type="qcurve"/>
      <point x="308" y="521"/>
      <point x="255" y="498"/>
      <point x="216" y="458"/>
      <point x="193" y="404"/>
      <point x="193" y="374" type="qcurve"/>
      <point x="193" y="345"/>
      <point x="213" y="293"/>
      <point x="250" y="253"/>
      <point x="303" y="230"/>
      <point x="335" y="230" type="qcurve"/>
      <point x="360" y="230"/>
      <point x="401" y="244"/>
      <point x="415" y="252" type="qcurve"/>
      <point x="424" y="235" type="line"/>
      <point x="408" y="225"/>
      <point x="363" y="211"/>
      <point x="336" y="211" type="qcurve"/>
      <point x="299" y="211"/>
      <point x="239" y="237"/>
      <point x="197" y="282"/>
      <point x="174" y="340"/>
      <point x="174" y="373" type="qcurve"/>
      <point x="174" y="408"/>
      <point x="200" y="469"/>
      <point x="244" y="514"/>
      <point x="304" y="539"/>
      <point x="337" y="539" type="qcurve"/>
      <point x="362" y="539"/>
      <point x="406" y="526"/>
      <point x="422" y="516" type="qcurve"/>
      <point x="422" y="474" type="line"/>
    </contour>
  </outline>
</glyph>
<glyph name="ordfeminine" format="1">
  <advance width="463"/>
  <unicode hex="00AA"/>
  <outline>
    <contour>
      <point x="349" y="328" type="line"/>
      <point x="402" y="328" type="line"/>
      <point x="402" y="306" type="line"/>
      <point x="323" y="306" type="line"/>
      <point x="323" y="341" type="line"/>
      <point x="323" y="350"/>
      <point x="324" y="368"/>
      <point x="324" y="377" type="qcurve"/>
      <point x="311" y="346"/>
      <point x="246" y="301"/>
      <point x="201" y="301" type="qcurve"/>
      <point x="170" y="301"/>
      <point x="117" y="324"/>
      <point x="78" y="363"/>
      <point x="56" y="415"/>
      <point x="56" y="445" type="qcurve"/>
      <point x="56" y="475"/>
      <point x="79" y="529"/>
      <point x="118" y="569"/>
      <point x="171" y="592"/>
      <point x="201" y="592" type="qcurve"/>
      <point x="246" y="592"/>
      <point x="311" y="546"/>
      <point x="323" y="514" type="qcurve"/>
      <point x="326" y="585" type="line"/>
      <point x="349" y="585" type="line"/>
    </contour>
    <contour>
      <point x="80" y="446" type="qcurve"/>
      <point x="80" y="421"/>
      <point x="99" y="377"/>
      <point x="132" y="344"/>
      <point x="176" y="325"/>
      <point x="201" y="325" type="qcurve"/>
      <point x="226" y="325"/>
      <point x="271" y="344"/>
      <point x="304" y="377"/>
      <point x="323" y="421"/>
      <point x="323" y="446" type="qcurve"/>
      <point x="323" y="471"/>
      <point x="304" y="516"/>
      <point x="271" y="548"/>
      <point x="226" y="567"/>
      <point x="201" y="567" type="qcurve"/>
      <point x="176" y="567"/>
      <point x="132" y="548"/>
      <point x="99" y="516"/>
      <point x="80" y="471"/>
    </contour>
  </outline>
</glyph>
<glyph name="registered" format="1">
  <advance width="658"/>
  <unicode hex="00AE"/>
  <outline>
    <contour>
      <point x="329" y="117" type="qcurve"/>
      <point x="275" y="117"/>
      <point x="181" y="155"/>
      <point x="112" y="223"/>
      <point x="72" y="317"/>
      <point x="72" y="372" type="qcurve"/>
      <point x="72" y="427"/>
      <point x="112" y="521"/>
      <point x="181" y="590"/>
      <point x="275" y="628"/>
      <point x="329" y="628" type="qcurve"/>
      <point x="383" y="628"/>
      <point x="477" y="590"/>
      <point x="546" y="521"/>
      <point x="586" y="427"/>
      <point x="586" y="372" type="qcurve"/>
      <point x="586" y="317"/>
      <point x="546" y="223"/>
      <point x="477" y="155"/>
      <point x="383" y="117"/>
    </contour>
    <contour>
      <point x="328" y="135" type="qcurve"/>
      <point x="377" y="135"/>
      <point x="464" y="171"/>
      <point x="529" y="234"/>
      <point x="566" y="321"/>
      <point x="566" y="371" type="qcurve"/>
      <point x="566" y="423"/>
      <point x="529" y="510"/>
      <point x="464" y="574"/>
      <point x="377" y="610"/>
      <point x="328" y="610" type="qcurve"/>
      <point x="279" y="610"/>
      <point x="193" y="574"/>
      <point x="129" y="510"/>
      <point x="92" y="423"/>
      <point x="92" y="371" type="qcurve"/>
      <point x="92" y="321"/>
      <point x="129" y="234"/>
      <point x="193" y="171"/>
      <point x="279" y="135"/>
    </contour>
    <contour>
      <point x="463" y="231" type="line"/>
      <point x="463" y="214" type="line"/>
      <point x="417" y="214" type="line"/>
      <point x="414" y="218"/>
      <point x="393" y="254"/>
      <point x="366" y="298"/>
      <point x="340" y="341"/>
      <point x="333" y="353" type="qcurve"/>
      <point x="326" y="352"/>
      <point x="314" y="351"/>
      <point x="306" y="351" type="qcurve"/>
      <point x="257" y="351" type="line"/>
      <point x="257" y="231" type="line"/>
      <point x="293" y="231" type="line"/>
      <point x="293" y="214" type="line"/>
      <point x="202" y="214" type="line"/>
      <point x="202" y="231" type="line"/>
      <point x="238" y="231" type="line"/>
      <point x="238" y="517" type="line"/>
      <point x="202" y="517" type="line"/>
      <point x="202" y="534" type="line"/>
      <point x="308" y="534" type="line"/>
      <point x="325" y="534"/>
      <point x="360" y="524"/>
      <point x="389" y="503"/>
      <point x="407" y="469"/>
      <point x="407" y="445" type="qcurve"/>
      <point x="407" y="419"/>
      <point x="381" y="370"/>
      <point x="352" y="359" type="qcurve"/>
      <point x="356" y="352"/>
      <point x="375" y="320"/>
      <point x="398" y="282"/>
      <point x="421" y="244"/>
      <point x="429" y="231" type="qcurve"/>
    </contour>
    <contour>
      <point x="257" y="369" type="line"/>
      <point x="306" y="369" type="line"/>
      <point x="330" y="369"/>
      <point x="362" y="385"/>
      <point x="380" y="408"/>
      <point x="388" y="435"/>
      <point x="388" y="446" type="qcurve"/>
      <point x="388" y="475"/>
      <point x="344" y="516"/>
      <point x="307" y="516" type="qcurve"/>
      <point x="257" y="516" type="line"/>
    </contour>
  </outline>
</glyph>
<glyph name="plusminus" format="1">
  <advance width="545"/>
  <unicode hex="00B1"/>
  <outline>
    <contour>
      <point x="254" y="212" type="line"/>
      <point x="254" y="375" type="line"/>
      <point x="91" y="375" type="line"/>
      <point x="91" y="411" type="line"/>
      <point x="254" y="411" type="line"/>
      <point x="254" y="573" type="line"/>
      <point x="290" y="573" type="line"/>
      <point x="290" y="411" type="line"/>
      <point x="453" y="411" type="line"/>
      <point x="453" y="375" type="line"/>
      <point x="290" y="375" type="line"/>
      <point x="290" y="212" type="line"/>
    </contour>
    <contour>
      <point x="453" y="121" type="line"/>
      <point x="91" y="121" type="line"/>
      <point x="91" y="157" type="line"/>
      <point x="453" y="157" type="line"/>
    </contour>
  </outline>
</glyph>
<glyph name="cedilla" format="1">
  <advance width="454"/>
  <unicode hex="00B8"/>
  <outline>
    <contour>
      <point x="191" y="0" type="line"/>
      <point x="217" y="0" type="line"/>
      <point x="217" y="-6" type="line"/>
      <point x="217" y="-20"/>
      <point x="225" y="-37"/>
      <point x="237" y="-49"/>
      <point x="252" y="-57"/>
      <point x="258" y="-61" type="qcurve"/>
      <point x="281" y="-77"/>
      <point x="299" y="-115"/>
      <point x="299" y="-132" type="qcurve"/>
      <point x="299" y="-181"/>
      <point x="247" y="-233"/>
      <point x="208" y="-233" type="qcurve"/>
      <point x="179" y="-233"/>
      <point x="130" y="-201"/>
      <point x="119" y="-169" type="qcurve"/>
      <point x="126" y="-167"/>
      <point x="138" y="-161"/>
      <point x="144" y="-158" type="qcurve"/>
      <point x="150" y="-178"/>
      <point x="183" y="-203"/>
      <point x="206" y="-203" type="qcurve"/>
      <point x="235" y="-203"/>
      <point x="270" y="-165"/>
      <point x="270" y="-136" type="qcurve"/>
      <point x="270" y="-111"/>
      <point x="245" y="-83"/>
      <point x="216" y="-62"/>
      <point x="191" y="-41"/>
      <point x="191" y="-22" type="qcurve"/>
    </contour>
  </outline>
</glyph>
<glyph name="onesuperior" format="1">
  <advance width="190"/>
  <unicode hex="00B9"/>
  <outline>
    <contour>
      <point x="49" y="685" type="line"/>
      <point x="49" y="701" type="line"/>
      <point x="111" y="701" type="line"/>
      <point x="111" y="401" type="line"/>
      <point x="94" y="401" type="line"/>
      <point x="94" y="685" type="line"/>
    </contour>
  </outline>
</glyph>
<glyph name="ordmasculine" format="1">
  <advance width="405"/>
  <unicode hex="00BA"/>
  <outline>
    <contour>
      <point x="56" y="446" type="qcurve"/>
      <point x="56" y="476"/>
      <point x="79" y="530"/>
      <point x="118" y="569"/>
      <point x="171" y="592"/>
      <point x="202" y="592" type="qcurve"/>
      <point x="233" y="592"/>
      <point x="286" y="569"/>
      <point x="326" y="530"/>
      <point x="349" y="476"/>
      <point x="349" y="446" type="qcurve"/>
      <point x="349" y="416"/>
      <point x="326" y="363"/>
      <point x="286" y="324"/>
      <point x="232" y="301"/>
      <point x="201" y="301" type="qcurve"/>
      <point x="171" y="301"/>
      <point x="118" y="323"/>
      <point x="79" y="362"/>
      <point x="56" y="415"/>
    </contour>
    <contour>
      <point x="81" y="446" type="qcurve"/>
      <point x="81" y="421"/>
      <point x="100" y="377"/>
      <point x="132" y="344"/>
      <point x="176" y="325"/>
      <point x="201" y="325" type="qcurve"/>
      <point x="226" y="325"/>
      <point x="271" y="344"/>
      <point x="304" y="377"/>
      <point x="323" y="421"/>
      <point x="323" y="446" type="qcurve"/>
      <point x="323" y="471"/>
      <point x="304" y="515"/>
      <point x="271" y="548"/>
      <point x="226" y="567"/>
      <point x="201" y="567" type="qcurve"/>
      <point x="176" y="567"/>
      <point x="132" y="548"/>
      <point x="100" y="515"/>
      <point x="81" y="471"/>
    </contour>
  </outline>
</glyph>
<glyph name="onequarter" format="1">
  <advance width="793"/>
  <unicode hex="00BC"/>
  <outline>
    <contour>
      <point x="740" y="26" type="line"/>
      <point x="740" y="0" type="line"/>
      <point x="591" y="0" type="line"/>
      <point x="591" y="26" type="line"/>
      <point x="650" y="26" type="line"/>
      <point x="650" y="133" type="line"/>
      <point x="400" y="133" type="line"/>
      <point x="469" y="223"/>
      <point x="609" y="403"/>
      <point x="678" y="492" type="qcurve"/>
      <point x="678" y="160" type="line"/>
      <point x="750" y="160" type="line"/>
      <point x="750" y="133" type="line"/>
      <point x="678" y="133" type="line"/>
      <point x="678" y="26" type="line"/>
    </contour>
    <contour>
      <point x="190" y="-19" type="line"/>
      <point x="469" y="738" type="line"/>
      <point x="506" y="738" type="line"/>
      <point x="226" y="-19" type="line"/>
    </contour>
    <contour>
      <point x="650" y="417" type="line"/>
      <point x="454" y="160" type="line"/>
      <point x="650" y="160" type="line"/>
    </contour>
    <contour>
      <point x="38" y="672" type="line"/>
      <point x="38" y="697" type="line"/>
      <point x="135" y="697" type="line"/>
      <point x="135" y="234" type="line"/>
      <point x="108" y="234" type="line"/>
      <point x="108" y="672" type="line"/>
    </contour>
  </outline>
</glyph>
<glyph name="onehalf" format="1">
  <advance width="838"/>
  <unicode hex="00BD"/>
  <outline>
    <contour>
      <point x="561" y="25" type="qcurve"/>
      <point x="768" y="25" type="line"/>
      <point x="768" y="105" type="line"/>
      <point x="794" y="105" type="line"/>
      <point x="794" y="0" type="line"/>
      <point x="498" y="0" type="line"/>
      <point x="543" y="44"/>
      <point x="628" y="129"/>
      <point x="694" y="209"/>
      <point x="734" y="284"/>
      <point x="734" y="318" type="qcurve"/>
      <point x="734" y="353"/>
      <point x="713" y="401"/>
      <point x="682" y="430"/>
      <point x="645" y="442"/>
      <point x="629" y="442" type="qcurve"/>
      <point x="596" y="442"/>
      <point x="554" y="419"/>
      <point x="530" y="385"/>
      <point x="521" y="346"/>
      <point x="521" y="330" type="qcurve"/>
      <point x="521" y="304"/>
      <point x="535" y="266"/>
      <point x="549" y="251" type="qcurve"/>
      <point x="533" y="236" type="line"/>
      <point x="515" y="253"/>
      <point x="495" y="301"/>
      <point x="495" y="330" type="qcurve"/>
      <point x="495" y="358"/>
      <point x="512" y="409"/>
      <point x="546" y="446"/>
      <point x="596" y="468"/>
      <point x="629" y="468" type="qcurve"/>
      <point x="658" y="468"/>
      <point x="706" y="446"/>
      <point x="740" y="408"/>
      <point x="759" y="356"/>
      <point x="759" y="326" type="qcurve"/>
      <point x="759" y="287"/>
      <point x="723" y="210"/>
      <point x="666" y="135"/>
      <point x="595" y="61"/>
    </contour>
    <contour>
      <point x="204" y="-19" type="line"/>
      <point x="483" y="738" type="line"/>
      <point x="520" y="738" type="line"/>
      <point x="240" y="-19" type="line"/>
    </contour>
    <contour>
      <point x="38" y="672" type="line"/>
      <point x="38" y="697" type="line"/>
      <point x="135" y="697" type="line"/>
      <point x="135" y="234" type="line"/>
      <point x="108" y="234" type="line"/>
      <point x="108" y="672" type="line"/>
    </contour>
  </outline>
</glyph>
<glyph name="Aacute" format="1">
  <advance width="727"/>
  <unicode hex="00C1"/>
  <outline>
    <contour>
      <point x="3" y="37" type="line"/>
      <point x="3" y="0" type="line"/>
      <point x="204" y="0" type="line"/>
      <point x="204" y="37" type="line"/>
      <point x="120" y="37" type="line"/>
      <point x="220" y="287" type="line"/>
      <point x="507" y="287" type="line"/>
      <point x="606" y="37" type="line"/>
      <point x="526" y="37" type="line"/>
      <point x="526" y="0" type="line"/>
      <point x="727" y="0" type="line"/>
      <point x="727" y="37" type="line"/>
      <point x="648" y="37" type="line"/>
      <point x="364" y="740" type="line"/>
      <point x="79" y="37" type="line"/>
    </contour>
    <contour>
      <point x="354" y="623" type="line"/>
      <point x="356" y="629"/>
      <point x="358" y="634" type="qcurve"/>
      <point x="360" y="639"/>
      <point x="362" y="648"/>
      <point x="364" y="652" type="qcurve"/>
      <point x="365" y="648"/>
      <point x="368" y="639"/>
      <point x="370" y="634" type="qcurve"/>
      <point x="372" y="629"/>
      <point x="373" y="623" type="qcurve"/>
      <point x="492" y="323" type="line"/>
      <point x="234" y="323" type="line"/>
    </contour>
    <contour>
      <point x="299" y="748" type="line"/>
      <point x="322" y="781"/>
      <point x="367" y="848"/>
      <point x="390" y="881" type="qcurve"/>
      <point x="428" y="881" type="line"/>
      <point x="329" y="748" type="line"/>
    </contour>
  </outline>
</glyph>
<glyph name="Acircumflex" format="1">
  <advance width="727"/>
  <unicode hex="00C2"/>
  <outline>
    <contour>
      <point x="3" y="37" type="line"/>
      <point x="3" y="0" type="line"/>
      <point x="204" y="0" type="line"/>
      <point x="204" y="37" type="line"/>
      <point x="120" y="37" type="line"/>
      <point x="220" y="287" type="line"/>
      <point x="507" y="287" type="line"/>
      <point x="606" y="37" type="line"/>
      <point x="526" y="37" type="line"/>
      <point x="526" y="0" type="line"/>
      <point x="727" y="0" type="line"/>
      <point x="727" y="37" type="line"/>
      <point x="648" y="37" type="line"/>
      <point x="364" y="740" type="line"/>
      <point x="79" y="37" type="line"/>
    </contour>
    <contour>
      <point x="354" y="623" type="line"/>
      <point x="356" y="629"/>
      <point x="358" y="634" type="qcurve"/>
      <point x="360" y="639"/>
      <point x="362" y="648"/>
      <point x="364" y="652" type="qcurve"/>
      <point x="365" y="648"/>
      <point x="368" y="639"/>
      <point x="370" y="634" type="qcurve"/>
      <point x="372" y="629"/>
      <point x="373" y="623" type="qcurve"/>
      <point x="492" y="323" type="line"/>
      <point x="234" y="323" type="line"/>
    </contour>
    <contour>
      <point x="363" y="872" type="qcurve"/>
      <point x="394" y="838"/>
      <point x="420" y="812" type="qcurve"/>
      <point x="442" y="789"/>
      <point x="479" y="749"/>
      <point x="483" y="744" type="qcurve"/>
      <point x="454" y="744" type="line"/>
      <point x="363" y="826" type="line"/>
      <point x="272" y="744" type="line"/>
      <point x="242" y="744" type="line"/>
      <point x="245" y="748"/>
      <point x="284" y="789"/>
      <point x="306" y="812" type="qcurve"/>
      <point x="332" y="839"/>
    </contour>
  </outline>
</glyph>
<glyph name="Aring" format="1">
  <advance width="727"/>
  <unicode hex="00C5"/>
  <outline>
    <contour>
      <point x="79" y="37" type="line"/>
      <point x="364" y="740" type="line"/>
      <point x="648" y="37" type="line"/>
      <point x="727" y="37" type="line"/>
      <point x="727" y="0" type="line"/>
      <point x="526" y="0" type="line"/>
      <point x="526" y="37" type="line"/>
      <point x="606" y="37" type="line"/>
      <point x="507" y="287" type="line"/>
      <point x="220" y="287" type="line"/>
      <point x="120" y="37" type="line"/>
      <point x="204" y="37" type="line"/>
      <point x="204" y="0" type="line"/>
      <point x="3" y="0" type="line"/>
      <point x="3" y="37" type="line"/>
    </contour>
    <contour>
      <point x="234" y="323" type="line"/>
      <point x="492" y="323" type="line"/>
      <point x="373" y="623" type="line"/>
      <point x="372" y="629"/>
      <point x="370" y="634" type="qcurve"/>
      <point x="368" y="639"/>
      <point x="365" y="648"/>
      <point x="364" y="652" type="qcurve"/>
      <point x="362" y="648"/>
      <point x="360" y="639"/>
      <point x="358" y="634" type="qcurve"/>
      <point x="356" y="629"/>
      <point x="354" y="623" type="qcurve"/>
    </contour>
    <contour>
      <point x="295" y="814" type="qcurve"/>
      <point x="295" y="843"/>
      <point x="336" y="883"/>
      <point x="365" y="883" type="qcurve"/>
      <point x="394" y="883"/>
      <point x="434" y="843"/>
      <point x="434" y="814" type="qcurve"/>
      <point x="434" y="785"/>
      <point x="394" y="744"/>
      <point x="365" y="744" type="qcurve"/>
      <point x="336" y="744"/>
      <point x="295" y="785"/>
    </contour>
    <contour>
      <point x="320" y="813" type="qcurve"/>
      <point x="320" y="795"/>
      <point x="347" y="768"/>
      <point x="365" y="768" type="qcurve"/>
      <point x="383" y="768"/>
      <point x="410" y="795"/>
      <point x="410" y="813" type="qcurve"/>
      <point x="410" y="832"/>
      <point x="383" y="858"/>
      <point x="365" y="858" type="qcurve"/>
      <point x="347" y="858"/>
      <point x="320" y="832"/>
    </contour>
  </outline>
</glyph>
<glyph name="Ccedilla" format="1">
  <advance width="658"/>
  <unicode hex="00C7"/>
  <outline>
    <contour>
      <point x="566" y="572" type="line"/>
      <point x="566" y="643" type="line"/>
      <point x="534" y="659"/>
      <point x="458" y="676"/>
      <point x="421" y="676" type="qcurve"/>
      <point x="354" y="676"/>
      <point x="236" y="625"/>
      <point x="149" y="536"/>
      <point x="98" y="418"/>
      <point x="98" y="351" type="qcurve"/>
      <point x="98" y="288"/>
      <point x="143" y="173"/>
      <point x="226" y="86"/>
      <point x="343" y="34"/>
      <point x="414" y="34" type="qcurve"/>
      <point x="469" y="34"/>
      <point x="561" y="63"/>
      <point x="591" y="82" type="qcurve"/>
      <point x="610" y="45" type="line"/>
      <point x="575" y="24"/>
      <point x="481" y="-6"/>
      <point x="422" y="-8" type="qcurve"/>
      <point x="422" y="-21"/>
      <point x="430" y="-37"/>
      <point x="442" y="-49"/>
      <point x="457" y="-57"/>
      <point x="463" y="-61" type="qcurve"/>
      <point x="486" y="-77"/>
      <point x="504" y="-115"/>
      <point x="504" y="-132" type="qcurve"/>
      <point x="504" y="-181"/>
      <point x="452" y="-233"/>
      <point x="413" y="-233" type="qcurve"/>
      <point x="384" y="-233"/>
      <point x="335" y="-201"/>
      <point x="324" y="-169" type="qcurve"/>
      <point x="331" y="-167"/>
      <point x="343" y="-161"/>
      <point x="349" y="-158" type="qcurve"/>
      <point x="355" y="-178"/>
      <point x="388" y="-203"/>
      <point x="411" y="-203" type="qcurve"/>
      <point x="440" y="-203"/>
      <point x="475" y="-165"/>
      <point x="475" y="-136" type="qcurve"/>
      <point x="475" y="-111"/>
      <point x="450" y="-83"/>
      <point x="421" y="-62"/>
      <point x="396" y="-39"/>
      <point x="396" y="-18" type="qcurve"/>
      <point x="396" y="-7" type="line"/>
      <point x="319" y="-4"/>
      <point x="193" y="56"/>
      <point x="105" y="152"/>
      <point x="57" y="278"/>
      <point x="57" y="349" type="qcurve"/>
      <point x="57" y="427"/>
      <point x="114" y="560"/>
      <point x="212" y="659"/>
      <point x="344" y="715"/>
      <point x="418" y="715" type="qcurve"/>
      <point x="473" y="715"/>
      <point x="571" y="687"/>
      <point x="606" y="665" type="qcurve"/>
      <point x="606" y="572" type="line"/>
    </contour>
  </outline>
</glyph>
<glyph name="Iacute" format="1">
  <advance width="320"/>
  <unicode hex="00CD"/>
  <outline>
    <contour>
      <point x="262" y="707" type="line"/>
      <point x="262" y="670" type="line"/>
      <point x="180" y="670" type="line"/>
      <point x="180" y="37" type="line"/>
      <point x="262" y="37" type="line"/>
      <point x="262" y="0" type="line"/>
      <point x="61" y="0" type="line"/>
      <point x="61" y="37" type="line"/>
      <point x="139" y="37" type="line"/>
      <point x="139" y="670" type="line"/>
      <point x="61" y="670" type="line"/>
      <point x="61" y="707" type="line"/>
    </contour>
    <contour>
      <point x="98" y="746" type="line"/>
      <point x="121" y="779"/>
      <point x="166" y="846"/>
      <point x="189" y="879" type="qcurve"/>
      <point x="227" y="879" type="line"/>
      <point x="128" y="746" type="line"/>
    </contour>
  </outline>
</glyph>
<glyph name="Ntilde" format="1">
  <advance width="858"/>
  <unicode hex="00D1"/>
  <outline>
    <contour>
      <point x="261" y="37" type="line"/>
      <point x="261" y="0" type="line"/>
      <point x="60" y="0" type="line"/>
      <point x="60" y="37" type="line"/>
      <point x="138" y="37" type="line"/>
      <point x="138" y="670" type="line"/>
      <point x="59" y="670" type="line"/>
      <point x="59" y="707" type="line"/>
      <point x="165" y="707" type="line"/>
      <point x="223" y="634"/>
      <point x="354" y="476"/>
      <point x="487" y="317"/>
      <point x="615" y="161"/>
      <point x="670" y="91" type="qcurve"/>
      <point x="689" y="65" type="line"/>
      <point x="686" y="97" type="line"/>
      <point x="686" y="671" type="line"/>
      <point x="602" y="671" type="line"/>
      <point x="602" y="708" type="line"/>
      <point x="803" y="708" type="line"/>
      <point x="803" y="671" type="line"/>
      <point x="727" y="671" type="line"/>
      <point x="727" y="-32" type="line"/>
      <point x="670" y="39"/>
      <point x="528" y="207"/>
      <point x="383" y="381"/>
      <point x="247" y="548"/>
      <point x="195" y="617" type="qcurve"/>
      <point x="176" y="643" type="line"/>
      <point x="179" y="611" type="line"/>
      <point x="179" y="37" type="line"/>
    </contour>
    <contour>
      <point x="420" y="785" type="qcurve"/>
      <point x="404" y="802"/>
      <point x="380" y="814"/>
      <point x="366" y="814" type="qcurve"/>
      <point x="358" y="814"/>
      <point x="339" y="810"/>
      <point x="320" y="798"/>
      <point x="306" y="777"/>
      <point x="304" y="761" type="qcurve"/>
      <point x="281" y="764" type="line"/>
      <point x="282" y="783"/>
      <point x="298" y="811"/>
      <point x="322" y="829"/>
      <point x="352" y="838"/>
      <point x="366" y="838" type="qcurve"/>
      <point x="387" y="838"/>
      <point x="422" y="818"/>
      <point x="438" y="801" type="qcurve"/>
      <point x="454" y="784"/>
      <point x="478" y="772"/>
      <point x="492" y="772" type="qcurve"/>
      <point x="499" y="772"/>
      <point x="519" y="776"/>
      <point x="538" y="788"/>
      <point x="552" y="809"/>
      <point x="554" y="825" type="qcurve"/>
      <point x="577" y="822" type="line"/>
      <point x="576" y="803"/>
      <point x="560" y="776"/>
      <point x="536" y="758"/>
      <point x="506" y="749"/>
      <point x="492" y="749" type="qcurve"/>
      <point x="471" y="749"/>
      <point x="436" y="768"/>
    </contour>
  </outline>
</glyph>
<glyph name="Oacute" format="1">
  <advance width="835"/>
  <unicode hex="00D3"/>
  <outline>
    <contour>
      <point x="56" y="353" type="qcurve"/>
      <point x="56" y="428"/>
      <point x="113" y="559"/>
      <point x="210" y="658"/>
      <point x="341" y="715"/>
      <point x="416" y="715" type="qcurve"/>
      <point x="491" y="715"/>
      <point x="623" y="658"/>
      <point x="722" y="559"/>
      <point x="779" y="428"/>
      <point x="779" y="353" type="qcurve"/>
      <point x="779" y="278"/>
      <point x="722" y="147"/>
      <point x="623" y="49"/>
      <point x="491" y="-8"/>
      <point x="416" y="-8" type="qcurve"/>
      <point x="341" y="-8"/>
      <point x="210" y="49"/>
      <point x="113" y="147"/>
      <point x="56" y="278"/>
    </contour>
    <contour>
      <point x="97" y="352" type="qcurve"/>
      <point x="97" y="286"/>
      <point x="147" y="169"/>
      <point x="234" y="82"/>
      <point x="349" y="31"/>
      <point x="415" y="31" type="qcurve"/>
      <point x="481" y="31"/>
      <point x="599" y="82"/>
      <point x="687" y="169"/>
      <point x="738" y="286"/>
      <point x="738" y="353" type="qcurve"/>
      <point x="738" y="419"/>
      <point x="687" y="537"/>
      <point x="600" y="624"/>
      <point x="483" y="675"/>
      <point x="417" y="675" type="qcurve"/>
      <point x="351" y="675"/>
      <point x="234" y="624"/>
      <point x="147" y="536"/>
      <point x="97" y="419"/>
    </contour>
    <contour>
      <point x="355" y="753" type="line"/>
      <point x="378" y="786"/>
      <point x="423" y="853"/>
      <point x="446" y="886" type="qcurve"/>
      <point x="484" y="886" type="line"/>
      <point x="385" y="753" type="line"/>
    </contour>
  </outline>
</glyph>
<glyph name="Oslash" format="1">
  <advance width="834"/>
  <unicode hex="00D8"/>
  <outline>
    <contour>
      <point x="55" y="353" type="qcurve"/>
      <point x="55" y="428"/>
      <point x="112" y="559"/>
      <point x="209" y="658"/>
      <point x="340" y="715"/>
      <point x="415" y="715" type="qcurve"/>
      <point x="475" y="715"/>
      <point x="582" y="678"/>
      <point x="627" y="646" type="qcurve"/>
      <point x="690" y="721" type="line"/>
      <point x="711" y="701" type="line"/>
      <point x="650" y="628" type="line"/>
      <point x="709" y="578"/>
      <point x="778" y="436"/>
      <point x="778" y="353" type="qcurve"/>
      <point x="778" y="278"/>
      <point x="721" y="147"/>
      <point x="622" y="49"/>
      <point x="490" y="-8"/>
      <point x="415" y="-8" type="qcurve"/>
      <point x="349" y="-8"/>
      <point x="231" y="36"/>
      <point x="184" y="76" type="qcurve"/>
      <point x="117" y="-5" type="line"/>
      <point x="96" y="14" type="line"/>
      <point x="164" y="95" type="line"/>
      <point x="113" y="144"/>
      <point x="55" y="277"/>
    </contour>
    <contour>
      <point x="209" y="106" type="qcurve"/>
      <point x="251" y="71"/>
      <point x="355" y="31"/>
      <point x="414" y="31" type="qcurve"/>
      <point x="480" y="31"/>
      <point x="598" y="82"/>
      <point x="686" y="169"/>
      <point x="737" y="286"/>
      <point x="737" y="353" type="qcurve"/>
      <point x="737" y="426"/>
      <point x="676" y="552"/>
      <point x="624" y="597" type="qcurve"/>
      <point x="578" y="543"/>
      <point x="471" y="417"/>
      <point x="362" y="287"/>
      <point x="255" y="161"/>
    </contour>
    <contour>
      <point x="96" y="352" type="qcurve"/>
      <point x="96" y="285"/>
      <point x="146" y="169"/>
      <point x="189" y="125" type="qcurve"/>
      <point x="235" y="179"/>
      <point x="341" y="306"/>
      <point x="450" y="435"/>
      <point x="556" y="561"/>
      <point x="601" y="615" type="qcurve"/>
      <point x="562" y="643"/>
      <point x="468" y="675"/>
      <point x="416" y="675" type="qcurve"/>
      <point x="350" y="675"/>
      <point x="233" y="624"/>
      <point x="146" y="536"/>
      <point x="96" y="419"/>
    </contour>
  </outline>
</glyph>
<glyph name="Ugrave" format="1">
  <advance width="724"/>
  <unicode hex="00D9"/>
  <outline>
    <contour>
      <point x="245" y="707" type="line"/>
      <point x="245" y="670" type="line"/>
      <point x="164" y="670" type="line"/>
      <point x="164" y="238" type="line"/>
      <point x="164" y="190"/>
      <point x="194" y="113"/>
      <point x="246" y="59"/>
      <point x="319" y="31"/>
      <point x="362" y="31" type="qcurve"/>
      <point x="404" y="31"/>
      <point x="477" y="59"/>
      <point x="531" y="113"/>
      <point x="561" y="190"/>
      <point x="561" y="238" type="qcurve"/>
      <point x="561" y="707" type="line"/>
      <point x="681" y="707" type="line"/>
      <point x="681" y="670" type="line"/>
      <point x="602" y="670" type="line"/>
      <point x="602" y="235" type="line"/>
      <point x="602" y="177"/>
      <point x="565" y="86"/>
      <point x="500" y="24"/>
      <point x="413" y="-8"/>
      <point x="362" y="-8" type="qcurve"/>
      <point x="311" y="-8"/>
      <point x="224" y="24"/>
      <point x="159" y="86"/>
      <point x="123" y="177"/>
      <point x="123" y="235" type="qcurve"/>
      <point x="123" y="670" type="line"/>
      <point x="44" y="670" type="line"/>
      <point x="44" y="707" type="line"/>
    </contour>
    <contour>
      <point x="331" y="879" type="line"/>
      <point x="421" y="746" type="line"/>
      <point x="392" y="746" type="line"/>
      <point x="293" y="879" type="line"/>
    </contour>
  </outline>
</glyph>
<glyph name="Uacute" format="1">
  <advance width="724"/>
  <unicode hex="00DA"/>
  <outline>
    <contour>
      <point x="245" y="707" type="line"/>
      <point x="245" y="670" type="line"/>
      <point x="164" y="670" type="line"/>
      <point x="164" y="238" type="line"/>
      <point x="164" y="190"/>
      <point x="194" y="113"/>
      <point x="246" y="59"/>
      <point x="319" y="31"/>
      <point x="362" y="31" type="qcurve"/>
      <point x="404" y="31"/>
      <point x="477" y="59"/>
      <point x="531" y="113"/>
      <point x="561" y="190"/>
      <point x="561" y="238" type="qcurve"/>
      <point x="561" y="707" type="line"/>
      <point x="681" y="707" type="line"/>
      <point x="681" y="670" type="line"/>
      <point x="602" y="670" type="line"/>
      <point x="602" y="235" type="line"/>
      <point x="602" y="177"/>
      <point x="565" y="86"/>
      <point x="500" y="24"/>
      <point x="413" y="-8"/>
      <point x="362" y="-8" type="qcurve"/>
      <point x="311" y="-8"/>
      <point x="224" y="24"/>
      <point x="159" y="86"/>
      <point x="123" y="177"/>
      <point x="123" y="235" type="qcurve"/>
      <point x="123" y="670" type="line"/>
      <point x="44" y="670" type="line"/>
      <point x="44" y="707" type="line"/>
    </contour>
    <contour>
      <point x="316" y="746" type="line"/>
      <point x="339" y="779"/>
      <point x="384" y="846"/>
      <point x="407" y="879" type="qcurve"/>
      <point x="445" y="879" type="line"/>
      <point x="346" y="746" type="line"/>
    </contour>
  </outline>
</glyph>
<glyph name="Thorn" format="1">
  <advance width="550"/>
  <unicode hex="00DE"/>
  <outline>
    <contour>
      <point x="180" y="707" type="line"/>
      <point x="180" y="551" type="line"/>
      <point x="295" y="551" type="line"/>
      <point x="332" y="551"/>
      <point x="409" y="529"/>
      <point x="472" y="482"/>
      <point x="512" y="407"/>
      <point x="512" y="354" type="qcurve"/>
      <point x="512" y="315"/>
      <point x="487" y="241"/>
      <point x="433" y="182"/>
      <point x="348" y="147"/>
      <point x="289" y="147" type="qcurve"/>
      <point x="180" y="147" type="line"/>
      <point x="180" y="0" type="line"/>
      <point x="62" y="0" type="line"/>
      <point x="62" y="37" type="line"/>
      <point x="139" y="37" type="line"/>
      <point x="139" y="670" type="line"/>
      <point x="62" y="670" type="line"/>
      <point x="62" y="707" type="line"/>
    </contour>
    <contour>
      <point x="180" y="187" type="line"/>
      <point x="291" y="187" type="line"/>
      <point x="344" y="187"/>
      <point x="413" y="221"/>
      <point x="454" y="272"/>
      <point x="471" y="331"/>
      <point x="471" y="355" type="qcurve"/>
      <point x="471" y="388"/>
      <point x="446" y="445"/>
      <point x="399" y="488"/>
      <point x="333" y="512"/>
      <point x="292" y="512" type="qcurve"/>
      <point x="180" y="512" type="line"/>
    </contour>
  </outline>
</glyph>
<glyph name="acircumflex" format="1">
  <advance width="541"/>
  <unicode hex="00E2"/>
  <outline>
    <contour>
      <point x="447" y="31" type="line"/>
      <point x="521" y="31" type="line"/>
      <point x="521" y="0" type="line"/>
      <point x="412" y="0" type="line"/>
      <point x="412" y="48" type="line"/>
      <point x="412" y="61"/>
      <point x="413" y="86"/>
      <point x="413" y="99" type="qcurve"/>
      <point x="396" y="55"/>
      <point x="306" y="-7"/>
      <point x="243" y="-7" type="qcurve"/>
      <point x="200" y="-7"/>
      <point x="126" y="25"/>
      <point x="72" y="79"/>
      <point x="41" y="152"/>
      <point x="41" y="193" type="qcurve"/>
      <point x="41" y="235"/>
      <point x="73" y="309"/>
      <point x="127" y="364"/>
      <point x="201" y="396"/>
      <point x="243" y="396" type="qcurve"/>
      <point x="273" y="396"/>
      <point x="327" y="379"/>
      <point x="371" y="349"/>
      <point x="403" y="310"/>
      <point x="412" y="288" type="qcurve"/>
      <point x="416" y="387" type="line"/>
      <point x="447" y="387" type="line"/>
    </contour>
    <contour>
      <point x="75" y="194" type="qcurve"/>
      <point x="75" y="159"/>
      <point x="101" y="98"/>
      <point x="146" y="53"/>
      <point x="208" y="27"/>
      <point x="243" y="27" type="qcurve"/>
      <point x="278" y="27"/>
      <point x="340" y="53"/>
      <point x="386" y="98"/>
      <point x="412" y="159"/>
      <point x="412" y="194" type="qcurve"/>
      <point x="412" y="229"/>
      <point x="386" y="291"/>
      <point x="340" y="336"/>
      <point x="278" y="362"/>
      <point x="243" y="362" type="qcurve"/>
      <point x="208" y="362"/>
      <point x="146" y="336"/>
      <point x="101" y="291"/>
      <point x="75" y="229"/>
    </contour>
    <contour>
      <point x="252" y="609" type="qcurve"/>
      <point x="283" y="575"/>
      <point x="309" y="549" type="qcurve"/>
      <point x="331" y="526"/>
      <point x="368" y="486"/>
      <point x="372" y="481" type="qcurve"/>
      <point x="343" y="481" type="line"/>
      <point x="252" y="563" type="line"/>
      <point x="161" y="481" type="line"/>
      <point x="131" y="481" type="line"/>
      <point x="134" y="485"/>
      <point x="173" y="526"/>
      <point x="195" y="549" type="qcurve"/>
      <point x="221" y="576"/>
    </contour>
  </outline>
</glyph>
<glyph name="aring" format="1">
  <advance width="541"/>
  <unicode hex="00E5"/>
  <outline>
    <contour>
      <point x="447" y="31" type="line"/>
      <point x="521" y="31" type="line"/>
      <point x="521" y="0" type="line"/>
      <point x="412" y="0" type="line"/>
      <point x="412" y="48" type="line"/>
      <point x="412" y="61"/>
      <point x="413" y="86"/>
      <point x="413" y="99" type="qcurve"/>
      <point x="396" y="55"/>
      <point x="306" y="-7"/>
      <point x="243" y="-7" type="qcurve"/>
      <point x="200" y="-7"/>
      <point x="126" y="25"/>
      <point x="72" y="79"/>
      <point x="41" y="152"/>
      <point x="41" y="193" type="qcurve"/>
      <point x="41" y="235"/>
      <point x="73" y="309"/>
      <point x="127" y="364"/>
      <point x="201" y="396"/>
      <point x="243" y="396" type="qcurve"/>
      <point x="273" y="396"/>
      <point x="327" y="379"/>
      <point x="371" y="349"/>
      <point x="403" y="310"/>
      <point x="412" y="288" type="qcurve"/>
      <point x="416" y="387" type="line"/>
      <point x="447" y="387" type="line"/>
    </contour>
    <contour>
      <point x="75" y="194" type="qcurve"/>
      <point x="75" y="159"/>
      <point x="101" y="98"/>
      <point x="146" y="53"/>
      <point x="208" y="27"/>
      <point x="243" y="27" type="qcurve"/>
      <point x="278" y="27"/>
      <point x="340" y="53"/>
      <point x="386" y="98"/>
      <point x="412" y="159"/>
      <point x="412" y="194" type="qcurve"/>
      <point x="412" y="229"/>
      <point x="386" y="291"/>
      <point x="340" y="336"/>
      <point x="278" y="362"/>
      <point x="243" y="362" type="qcurve"/>
      <point x="208" y="362"/>
      <point x="146" y="336"/>
      <point x="101" y="291"/>
      <point x="75" y="229"/>
    </contour>
    <contour>
      <point x="172" y="513" type="qcurve"/>
      <point x="172" y="542"/>
      <point x="213" y="582"/>
      <point x="242" y="582" type="qcurve"/>
      <point x="271" y="582"/>
      <point x="311" y="542"/>
      <point x="311" y="513" type="qcurve"/>
      <point x="311" y="484"/>
      <point x="271" y="443"/>
      <point x="242" y="443" type="qcurve"/>
      <point x="213" y="443"/>
      <point x="172" y="484"/>
    </contour>
    <contour>
      <point x="197" y="512" type="qcurve"/>
      <point x="197" y="494"/>
      <point x="223" y="468"/>
      <point x="242" y="468" type="qcurve"/>
      <point x="260" y="468"/>
      <point x="287" y="494"/>
      <point x="287" y="512" type="qcurve"/>
      <point x="287" y="531"/>
      <point x="260" y="558"/>
      <point x="242" y="558" type="qcurve"/>
      <point x="223" y="558"/>
      <point x="197" y="531"/>
    </contour>
  </outline>
</glyph>
<glyph name="ccedilla" format="1">
  <advance width="398"/>
  <unicode hex="00E7"/>
  <outline>
    <contour>
      <point x="348" y="63" type="qcurve"/>
      <point x="354" y="57"/>
      <point x="365" y="44"/>
      <point x="370" y="37" type="qcurve"/>
      <point x="344" y="17"/>
      <point x="280" y="-7"/>
      <point x="243" y="-7" type="qcurve"/>
      <point x="242" y="-7" type="line"/>
      <point x="242" y="-33"/>
      <point x="270" y="-53"/>
      <point x="283" y="-61" type="qcurve"/>
      <point x="306" y="-77"/>
      <point x="324" y="-115"/>
      <point x="324" y="-132" type="qcurve"/>
      <point x="324" y="-181"/>
      <point x="272" y="-233"/>
      <point x="233" y="-233" type="qcurve"/>
      <point x="204" y="-233"/>
      <point x="155" y="-201"/>
      <point x="144" y="-169" type="qcurve"/>
      <point x="151" y="-167"/>
      <point x="163" y="-161"/>
      <point x="169" y="-158" type="qcurve"/>
      <point x="175" y="-178"/>
      <point x="208" y="-203"/>
      <point x="231" y="-203" type="qcurve"/>
      <point x="260" y="-203"/>
      <point x="295" y="-165"/>
      <point x="295" y="-136" type="qcurve"/>
      <point x="295" y="-111"/>
      <point x="270" y="-83"/>
      <point x="241" y="-62"/>
      <point x="216" y="-39"/>
      <point x="216" y="-18" type="qcurve"/>
      <point x="216" y="-5" type="line"/>
      <point x="178" y="-1"/>
      <point x="114" y="34"/>
      <point x="68" y="87"/>
      <point x="41" y="156"/>
      <point x="41" y="194" type="qcurve"/>
      <point x="41" y="236"/>
      <point x="72" y="310"/>
      <point x="127" y="364"/>
      <point x="201" y="396"/>
      <point x="243" y="396" type="qcurve"/>
      <point x="280" y="396"/>
      <point x="345" y="372"/>
      <point x="371" y="352" type="qcurve"/>
      <point x="366" y="345"/>
      <point x="354" y="333"/>
      <point x="348" y="325" type="qcurve"/>
      <point x="327" y="342"/>
      <point x="273" y="362"/>
      <point x="243" y="362" type="qcurve"/>
      <point x="207" y="362"/>
      <point x="146" y="336"/>
      <point x="101" y="291"/>
      <point x="75" y="229"/>
      <point x="75" y="194" type="qcurve"/>
      <point x="75" y="159"/>
      <point x="101" y="98"/>
      <point x="146" y="53"/>
      <point x="207" y="27"/>
      <point x="243" y="27" type="qcurve"/>
      <point x="273" y="27"/>
      <point x="327" y="46"/>
    </contour>
  </outline>
</glyph>
<glyph name="igrave" format="1">
  <advance width="234"/>
  <unicode hex="00EC"/>
  <outline>
    <contour>
      <point x="138" y="387" type="line"/>
      <point x="138" y="31" type="line"/>
      <point x="214" y="31" type="line"/>
      <point x="214" y="0" type="line"/>
      <point x="29" y="0" type="line"/>
      <point x="29" y="31" type="line"/>
      <point x="103" y="31" type="line"/>
      <point x="103" y="356" type="line"/>
      <point x="29" y="356" type="line"/>
      <point x="29" y="387" type="line"/>
    </contour>
    <contour>
      <point x="80" y="614" type="line"/>
      <point x="170" y="481" type="line"/>
      <point x="141" y="481" type="line"/>
      <point x="42" y="614" type="line"/>
    </contour>
  </outline>
</glyph>
<glyph name="ntilde" format="1">
  <advance width="513"/>
  <unicode hex="00F1"/>
  <outline>
    <contour>
      <point x="131" y="387" type="line"/>
      <point x="131" y="383"/>
      <point x="132" y="353"/>
      <point x="134" y="319"/>
      <point x="135" y="290"/>
      <point x="135" y="287" type="qcurve"/>
      <point x="156" y="335"/>
      <point x="243" y="395"/>
      <point x="301" y="395" type="qcurve"/>
      <point x="357" y="395"/>
      <point x="422" y="331"/>
      <point x="424" y="280" type="qcurve"/>
      <point x="424" y="31" type="line"/>
      <point x="498" y="31" type="line"/>
      <point x="498" y="0" type="line"/>
      <point x="314" y="0" type="line"/>
      <point x="314" y="31" type="line"/>
      <point x="390" y="31" type="line"/>
      <point x="390" y="274" type="line"/>
      <point x="388" y="309"/>
      <point x="341" y="359"/>
      <point x="297" y="361" type="qcurve"/>
      <point x="264" y="361"/>
      <point x="207" y="339"/>
      <point x="163" y="301"/>
      <point x="138" y="247"/>
      <point x="138" y="216" type="qcurve"/>
      <point x="138" y="31" type="line"/>
      <point x="214" y="31" type="line"/>
      <point x="214" y="0" type="line"/>
      <point x="29" y="0" type="line"/>
      <point x="29" y="31" type="line"/>
      <point x="103" y="31" type="line"/>
      <point x="103" y="356" type="line"/>
      <point x="29" y="356" type="line"/>
      <point x="29" y="387" type="line"/>
    </contour>
    <contour>
      <point x="258" y="492" type="qcurve"/>
      <point x="242" y="509"/>
      <point x="218" y="521"/>
      <point x="204" y="521" type="qcurve"/>
      <point x="196" y="521"/>
      <point x="177" y="517"/>
      <point x="158" y="505"/>
      <point x="144" y="484"/>
      <point x="142" y="468" type="qcurve"/>
      <point x="119" y="471" type="line"/>
      <point x="120" y="490"/>
      <point x="136" y="518"/>
      <point x="160" y="536"/>
      <point x="190" y="545"/>
      <point x="204" y="545" type="qcurve"/>
      <point x="225" y="545"/>
      <point x="260" y="525"/>
      <point x="276" y="508" type="qcurve"/>
      <point x="292" y="491"/>
      <point x="316" y="479"/>
      <point x="330" y="479" type="qcurve"/>
      <point x="337" y="479"/>
      <point x="357" y="483"/>
      <point x="376" y="495"/>
      <point x="390" y="516"/>
      <point x="392" y="532" type="qcurve"/>
      <point x="415" y="529" type="line"/>
      <point x="414" y="510"/>
      <point x="398" y="483"/>
      <point x="374" y="465"/>
      <point x="344" y="456"/>
      <point x="330" y="456" type="qcurve"/>
      <point x="309" y="456"/>
      <point x="274" y="475"/>
    </contour>
  </outline>
</glyph>
<glyph name="ograve" format="1">
  <advance width="490"/>
  <unicode hex="00F2"/>
  <outline>
    <contour>
      <point x="42" y="194" type="qcurve"/>
      <point x="42" y="236"/>
      <point x="73" y="310"/>
      <point x="128" y="365"/>
      <point x="202" y="397"/>
      <point x="245" y="397" type="qcurve"/>
      <point x="288" y="397"/>
      <point x="362" y="365"/>
      <point x="417" y="310"/>
      <point x="448" y="236"/>
      <point x="448" y="194" type="qcurve"/>
      <point x="448" y="152"/>
      <point x="417" y="79"/>
      <point x="362" y="24"/>
      <point x="287" y="-7"/>
      <point x="244" y="-7" type="qcurve"/>
      <point x="202" y="-7"/>
      <point x="128" y="23"/>
      <point x="73" y="77"/>
      <point x="42" y="151"/>
    </contour>
    <contour>
      <point x="77" y="194" type="qcurve"/>
      <point x="77" y="159"/>
      <point x="103" y="98"/>
      <point x="148" y="53"/>
      <point x="209" y="27"/>
      <point x="244" y="27" type="qcurve"/>
      <point x="279" y="27"/>
      <point x="340" y="53"/>
      <point x="386" y="98"/>
      <point x="412" y="159"/>
      <point x="412" y="194" type="qcurve"/>
      <point x="412" y="229"/>
      <point x="386" y="290"/>
      <point x="340" y="336"/>
      <point x="279" y="362"/>
      <point x="244" y="362" type="qcurve"/>
      <point x="209" y="362"/>
      <point x="148" y="336"/>
      <point x="103" y="290"/>
      <point x="77" y="229"/>
    </contour>
    <contour>
      <point x="186" y="614" type="line"/>
      <point x="276" y="481" type="line"/>
      <point x="247" y="481" type="line"/>
      <point x="148" y="614" type="line"/>
    </contour>
  </outline>
</glyph>
<glyph name="ocircumflex" format="1">
  <advance width="490"/>
  <unicode hex="00F4"/>
  <outline>
    <contour>
      <point x="42" y="194" type="qcurve"/>
      <point x="42" y="236"/>
      <point x="73" y="310"/>
      <point x="128" y="365"/>
      <point x="202" y="397"/>
      <point x="245" y="397" type="qcurve"/>
      <point x="288" y="397"/>
      <point x="362" y="365"/>
      <point x="417" y="310"/>
      <point x="448" y="236"/>
      <point x="448" y="194" type="qcurve"/>
      <point x="448" y="152"/>
      <point x="417" y="79"/>
      <point x="362" y="24"/>
      <point x="287" y="-7"/>
      <point x="244" y="-7" type="qcurve"/>
      <point x="202" y="-7"/>
      <point x="128" y="23"/>
      <point x="73" y="77"/>
      <point x="42" y="151"/>
    </contour>
    <contour>
      <point x="77" y="194" type="qcurve"/>
      <point x="77" y="159"/>
      <point x="103" y="98"/>
      <point x="148" y="53"/>
      <point x="209" y="27"/>
      <point x="244" y="27" type="qcurve"/>
      <point x="279" y="27"/>
      <point x="340" y="53"/>
      <point x="386" y="98"/>
      <point x="412" y="159"/>
      <point x="412" y="194" type="qcurve"/>
      <point x="412" y="229"/>
      <point x="386" y="290"/>
      <point x="340" y="336"/>
      <point x="279" y="362"/>
      <point x="244" y="362" type="qcurve"/>
      <point x="209" y="362"/>
      <point x="148" y="336"/>
      <point x="103" y="290"/>
      <point x="77" y="229"/>
    </contour>
    <contour>
      <point x="247" y="609" type="qcurve"/>
      <point x="278" y="575"/>
      <point x="304" y="549" type="qcurve"/>
      <point x="326" y="526"/>
      <point x="363" y="486"/>
      <point x="367" y="481" type="qcurve"/>
      <point x="338" y="481" type="line"/>
      <point x="247" y="563" type="line"/>
      <point x="156" y="481" type="line"/>
      <point x="126" y="481" type="line"/>
      <point x="129" y="485"/>
      <point x="168" y="526"/>
      <point x="190" y="549" type="qcurve"/>
      <point x="216" y="576"/>
    </contour>
  </outline>
</glyph>
<glyph name="odieresis" format="1">
  <advance width="490"/>
  <unicode hex="00F6"/>
  <outline>
    <contour>
      <point x="42" y="194" type="qcurve"/>
      <point x="42" y="236"/>
      <point x="73" y="310"/>
      <point x="128" y="365"/>
      <point x="202" y="397"/>
      <point x="245" y="397" type="qcurve"/>
      <point x="288" y="397"/>
      <point x="362" y="365"/>
      <point x="417" y="310"/>
      <point x="448" y="236"/>
      <point x="448" y="194" type="qcurve"/>
      <point x="448" y="152"/>
      <point x="417" y="79"/>
      <point x="362" y="24"/>
      <point x="287" y="-7"/>
      <point x="244" y="-7" type="qcurve"/>
      <point x="202" y="-7"/>
      <point x="128" y="23"/>
      <point x="73" y="77"/>
      <point x="42" y="151"/>
    </contour>
    <contour>
      <point x="77" y="194" type="qcurve"/>
      <point x="77" y="159"/>
      <point x="103" y="98"/>
      <point x="148" y="53"/>
      <point x="209" y="27"/>
      <point x="244" y="27" type="qcurve"/>
      <point x="279" y="27"/>
      <point x="340" y="53"/>
      <point x="386" y="98"/>
      <point x="412" y="159"/>
      <point x="412" y="194" type="qcurve"/>
      <point x="412" y="229"/>
      <point x="386" y="290"/>
      <point x="340" y="336"/>
      <point x="279" y="362"/>
      <point x="244" y="362" type="qcurve"/>
      <point x="209" y="362"/>
      <point x="148" y="336"/>
      <point x="103" y="290"/>
      <point x="77" y="229"/>
    </contour>
    <contour>
      <point x="304" y="508" type="qcurve"/>
      <point x="304" y="522"/>
      <point x="322" y="539"/>
      <point x="334" y="539" type="qcurve"/>
      <point x="346" y="539"/>
      <point x="364" y="522"/>
      <point x="364" y="508" type="qcurve"/>
      <point x="364" y="495"/>
      <point x="346" y="478"/>
      <point x="334" y="478" type="qcurve"/>
      <point x="322" y="478"/>
      <point x="304" y="495"/>
    </contour>
    <contour>
      <point x="132" y="508" type="qcurve"/>
      <point x="132" y="522"/>
      <point x="150" y="539"/>
      <point x="162" y="539" type="qcurve"/>
      <point x="174" y="539"/>
      <point x="192" y="522"/>
      <point x="192" y="508" type="qcurve"/>
      <point x="192" y="495"/>
      <point x="174" y="478"/>
      <point x="162" y="478" type="qcurve"/>
      <point x="150" y="478"/>
      <point x="132" y="495"/>
    </contour>
  </outline>
</glyph>
<glyph name="oslash" format="1">
  <advance width="489"/>
  <unicode hex="00F8"/>
  <outline>
    <contour>
      <point x="41" y="194" type="qcurve"/>
      <point x="41" y="236"/>
      <point x="72" y="310"/>
      <point x="127" y="365"/>
      <point x="201" y="397"/>
      <point x="244" y="397" type="qcurve"/>
      <point x="309" y="397"/>
      <point x="359" y="361" type="qcurve"/>
      <point x="388" y="395" type="line"/>
      <point x="407" y="378" type="line"/>
      <point x="380" y="346" type="line"/>
      <point x="411" y="318"/>
      <point x="447" y="239"/>
      <point x="447" y="194" type="qcurve"/>
      <point x="447" y="152"/>
      <point x="416" y="79"/>
      <point x="361" y="24"/>
      <point x="286" y="-7"/>
      <point x="243" y="-7" type="qcurve"/>
      <point x="206" y="-7"/>
      <point x="142" y="16"/>
      <point x="116" y="36" type="qcurve"/>
      <point x="79" y="-7" type="line"/>
      <point x="62" y="11" type="line"/>
      <point x="69" y="19"/>
      <point x="87" y="40"/>
      <point x="97" y="52" type="qcurve"/>
      <point x="71" y="79"/>
      <point x="41" y="151"/>
    </contour>
    <contour>
      <point x="139" y="62" type="qcurve"/>
      <point x="160" y="45"/>
      <point x="213" y="27"/>
      <point x="243" y="27" type="qcurve"/>
      <point x="278" y="27"/>
      <point x="339" y="53"/>
      <point x="385" y="98"/>
      <point x="411" y="159"/>
      <point x="411" y="194" type="qcurve"/>
      <point x="411" y="231"/>
      <point x="382" y="295"/>
      <point x="356" y="318" type="qcurve"/>
      <point x="333" y="290"/>
      <point x="277" y="225"/>
      <point x="220" y="157"/>
      <point x="163" y="91"/>
    </contour>
    <contour>
      <point x="76" y="194" type="qcurve"/>
      <point x="76" y="161"/>
      <point x="99" y="102"/>
      <point x="120" y="80" type="qcurve"/>
      <point x="144" y="108"/>
      <point x="200" y="174"/>
      <point x="257" y="241"/>
      <point x="313" y="306"/>
      <point x="336" y="334" type="qcurve"/>
      <point x="296" y="362"/>
      <point x="243" y="362" type="qcurve"/>
      <point x="208" y="362"/>
      <point x="147" y="336"/>
      <point x="102" y="290"/>
      <point x="76" y="229"/>
    </contour>
  </outline>
</glyph>
<glyph name="udieresis" format="1">
  <advance width="505"/>
  <unicode hex="00FC"/>
  <outline>
    <contour>
      <point x="377" y="171" type="qcurve"/>
      <point x="377" y="356" type="line"/>
      <point x="300" y="356" type="line"/>
      <point x="300" y="387" type="line"/>
      <point x="411" y="387" type="line"/>
      <point x="411" y="31" type="line"/>
      <point x="485" y="31" type="line"/>
      <point x="485" y="0" type="line"/>
      <point x="383" y="0" type="line"/>
      <point x="380" y="101" type="line"/>
      <point x="359" y="52"/>
      <point x="272" y="-8"/>
      <point x="213" y="-8" type="qcurve"/>
      <point x="157" y="-8"/>
      <point x="92" y="57"/>
      <point x="90" y="108" type="qcurve"/>
      <point x="90" y="356" type="line"/>
      <point x="16" y="356" type="line"/>
      <point x="16" y="387" type="line"/>
      <point x="125" y="387" type="line"/>
      <point x="125" y="114" type="line"/>
      <point x="127" y="79"/>
      <point x="173" y="29"/>
      <point x="217" y="26" type="qcurve"/>
      <point x="250" y="26"/>
      <point x="308" y="48"/>
      <point x="351" y="86"/>
      <point x="377" y="139"/>
    </contour>
    <contour>
      <point x="304" y="508" type="qcurve"/>
      <point x="304" y="522"/>
      <point x="322" y="539"/>
      <point x="334" y="539" type="qcurve"/>
      <point x="346" y="539"/>
      <point x="364" y="522"/>
      <point x="364" y="508" type="qcurve"/>
      <point x="364" y="495"/>
      <point x="346" y="478"/>
      <point x="334" y="478" type="qcurve"/>
      <point x="322" y="478"/>
      <point x="304" y="495"/>
    </contour>
    <contour>
      <point x="132" y="508" type="qcurve"/>
      <point x="132" y="522"/>
      <point x="150" y="539"/>
      <point x="162" y="539" type="qcurve"/>
      <point x="174" y="539"/>
      <point x="192" y="522"/>
      <point x="192" y="508" type="qcurve"/>
      <point x="192" y="495"/>
      <point x="174" y="478"/>
      <point x="162" y="478" type="qcurve"/>
      <point x="150" y="478"/>
      <point x="132" y="495"/>
    </contour>
  </outline>
</glyph>
<glyph name="thorn" format="1">
  <advance width="528"/>
  <unicode hex="00FE"/>
  <outline>
    <contour>
      <point x="6" y="727" type="line"/>
      <point x="6" y="758" type="line"/>
      <point x="115" y="758" type="line"/>
      <point x="115" y="288" type="line"/>
      <point x="135" y="333"/>
      <point x="226" y="396"/>
      <point x="286" y="396" type="qcurve"/>
      <point x="328" y="396"/>
      <point x="401" y="365"/>
      <point x="455" y="311"/>
      <point x="486" y="237"/>
      <point x="486" y="194" type="qcurve"/>
      <point x="486" y="152"/>
      <point x="455" y="78"/>
      <point x="401" y="24"/>
      <point x="328" y="-7"/>
      <point x="285" y="-7" type="qcurve"/>
      <point x="225" y="-7"/>
      <point x="133" y="54"/>
      <point x="114" y="99" type="qcurve"/>
      <point x="114" y="86"/>
      <point x="115" y="61"/>
      <point x="115" y="48" type="qcurve"/>
      <point x="115" y="-156" type="line"/>
      <point x="191" y="-156" type="line"/>
      <point x="191" y="-187" type="line"/>
      <point x="6" y="-187" type="line"/>
      <point x="6" y="-156" type="line"/>
      <point x="80" y="-156" type="line"/>
      <point x="80" y="727" type="line"/>
    </contour>
    <contour>
      <point x="449" y="194" type="qcurve"/>
      <point x="449" y="229"/>
      <point x="424" y="291"/>
      <point x="379" y="336"/>
      <point x="319" y="362"/>
      <point x="283" y="362" type="qcurve"/>
      <point x="248" y="362"/>
      <point x="186" y="336"/>
      <point x="141" y="291"/>
      <point x="115" y="229"/>
      <point x="115" y="194" type="qcurve"/>
      <point x="115" y="159"/>
      <point x="141" y="98"/>
      <point x="186" y="53"/>
      <point x="248" y="27"/>
      <point x="283" y="27" type="qcurve"/>
      <point x="319" y="27"/>
      <point x="379" y="53"/>
      <point x="424" y="98"/>
      <point x="449" y="159"/>
    </contour>
  </outline>
</glyph>
<glyph name="Aogonek" format="1">
  <advance width="727"/>
  <unicode hex="0104"/>
  <outline>
    <contour>
      <point x="79" y="37" type="line"/>
      <point x="364" y="740" type="line"/>
      <point x="648" y="37" type="line"/>
      <point x="727" y="37" type="line"/>
      <point x="727" y="0" type="line"/>
      <point x="649" y="0" type="line"/>
      <point x="649" y="-22" type="line"/>
      <point x="649" y="-41"/>
      <point x="624" y="-62"/>
      <point x="595" y="-83"/>
      <point x="570" y="-111"/>
      <point x="570" y="-136" type="qcurve"/>
      <point x="570" y="-165"/>
      <point x="605" y="-203"/>
      <point x="634" y="-203" type="qcurve"/>
      <point x="657" y="-203"/>
      <point x="690" y="-178"/>
      <point x="695" y="-158" type="qcurve"/>
      <point x="720" y="-169" type="line"/>
      <point x="709" y="-201"/>
      <point x="661" y="-233"/>
      <point x="632" y="-233" type="qcurve"/>
      <point x="592" y="-233"/>
      <point x="540" y="-181"/>
      <point x="540" y="-132" type="qcurve"/>
      <point x="540" y="-115"/>
      <point x="559" y="-77"/>
      <point x="581" y="-61" type="qcurve"/>
      <point x="587" y="-57"/>
      <point x="602" y="-49"/>
      <point x="615" y="-37"/>
      <point x="623" y="-20"/>
      <point x="623" y="-6" type="qcurve"/>
      <point x="623" y="0" type="line"/>
      <point x="526" y="0" type="line"/>
      <point x="526" y="37" type="line"/>
      <point x="606" y="37" type="line"/>
      <point x="507" y="287" type="line"/>
      <point x="220" y="287" type="line"/>
      <point x="120" y="37" type="line"/>
      <point x="204" y="37" type="line"/>
      <point x="204" y="0" type="line"/>
      <point x="3" y="0" type="line"/>
      <point x="3" y="37" type="line"/>
    </contour>
    <contour>
      <point x="234" y="323" type="line"/>
      <point x="492" y="323" type="line"/>
      <point x="373" y="623" type="line"/>
      <point x="372" y="629"/>
      <point x="370" y="634" type="qcurve"/>
      <point x="368" y="639"/>
      <point x="365" y="648"/>
      <point x="364" y="652" type="qcurve"/>
      <point x="362" y="648"/>
      <point x="360" y="639"/>
      <point x="358" y="634" type="qcurve"/>
      <point x="356" y="629"/>
      <point x="354" y="623" type="qcurve"/>
    </contour>
  </outline>
</glyph>
<glyph name="cacute" format="1">
  <advance width="407"/>
  <unicode hex="0107"/>
  <outline>
    <contour>
      <point x="372" y="352" type="qcurve"/>
      <point x="372" y="290" type="line"/>
      <point x="342" y="290" type="line"/>
      <point x="342" y="331" type="line"/>
      <point x="300" y="362"/>
      <point x="244" y="362" type="qcurve"/>
      <point x="208" y="362"/>
      <point x="147" y="336"/>
      <point x="102" y="291"/>
      <point x="76" y="229"/>
      <point x="76" y="194" type="qcurve"/>
      <point x="76" y="159"/>
      <point x="102" y="98"/>
      <point x="147" y="53"/>
      <point x="208" y="27"/>
      <point x="244" y="27" type="qcurve"/>
      <point x="274" y="27"/>
      <point x="330" y="46"/>
      <point x="351" y="63" type="qcurve"/>
      <point x="357" y="57"/>
      <point x="368" y="44"/>
      <point x="373" y="37" type="qcurve"/>
      <point x="347" y="16"/>
      <point x="281" y="-7"/>
      <point x="243" y="-7" type="qcurve"/>
      <point x="200" y="-7"/>
      <point x="126" y="25"/>
      <point x="72" y="79"/>
      <point x="42" y="152"/>
      <point x="42" y="194" type="qcurve"/>
      <point x="42" y="236"/>
      <point x="73" y="310"/>
      <point x="128" y="364"/>
      <point x="202" y="396"/>
      <point x="244" y="396" type="qcurve"/>
      <point x="281" y="396"/>
      <point x="346" y="373"/>
    </contour>
    <contour>
      <point x="208" y="481" type="line"/>
      <point x="231" y="514"/>
      <point x="276" y="581"/>
      <point x="299" y="614" type="qcurve"/>
      <point x="337" y="614" type="line"/>
      <point x="238" y="481" type="line"/>
    </contour>
  </outline>
</glyph>
<glyph name="Eogonek" format="1">
  <advance width="640"/>
  <unicode hex="0118"/>
  <outline>
    <contour>
      <point x="532" y="596" type="line"/>
      <point x="532" y="669" type="line"/>
      <point x="180" y="669" type="line"/>
      <point x="180" y="375" type="line"/>
      <point x="532" y="375" type="line"/>
      <point x="532" y="337" type="line"/>
      <point x="180" y="337" type="line"/>
      <point x="180" y="39" type="line"/>
      <point x="546" y="39" type="line"/>
      <point x="546" y="114" type="line"/>
      <point x="585" y="114" type="line"/>
      <point x="585" y="0" type="line"/>
      <point x="62" y="0" type="line"/>
      <point x="62" y="37" type="line"/>
      <point x="139" y="37" type="line"/>
      <point x="139" y="670" type="line"/>
      <point x="62" y="670" type="line"/>
      <point x="62" y="707" type="line"/>
      <point x="571" y="707" type="line"/>
      <point x="571" y="596" type="line"/>
    </contour>
    <contour>
      <point x="585" y="0" type="line"/>
      <point x="559" y="0" type="line"/>
      <point x="559" y="-6" type="line"/>
      <point x="559" y="-20"/>
      <point x="551" y="-37"/>
      <point x="538" y="-49"/>
      <point x="523" y="-57"/>
      <point x="517" y="-61" type="qcurve"/>
      <point x="495" y="-77"/>
      <point x="476" y="-115"/>
      <point x="476" y="-132" type="qcurve"/>
      <point x="476" y="-181"/>
      <point x="528" y="-233"/>
      <point x="568" y="-233" type="qcurve"/>
      <point x="597" y="-233"/>
      <point x="645" y="-201"/>
      <point x="656" y="-169" type="qcurve"/>
      <point x="631" y="-158" type="line"/>
      <point x="626" y="-178"/>
      <point x="593" y="-203"/>
      <point x="570" y="-203" type="qcurve"/>
      <point x="541" y="-203"/>
      <point x="506" y="-165"/>
      <point x="506" y="-136" type="qcurve"/>
      <point x="506" y="-111"/>
      <point x="531" y="-83"/>
      <point x="560" y="-62"/>
      <point x="585" y="-41"/>
      <point x="585" y="-22" type="qcurve"/>
    </contour>
  </outline>
</glyph>
<glyph name="eogonek" format="1">
  <advance width="443"/>
  <unicode hex="0119"/>
  <outline>
    <contour>
      <point x="385" y="47" type="line"/>
      <point x="360" y="24"/>
      <point x="295" y="-4"/>
      <point x="259" y="-6" type="qcurve"/>
      <point x="259" y="-22" type="line"/>
      <point x="259" y="-41"/>
      <point x="234" y="-62"/>
      <point x="205" y="-83"/>
      <point x="180" y="-111"/>
      <point x="180" y="-136" type="qcurve"/>
      <point x="180" y="-165"/>
      <point x="215" y="-203"/>
      <point x="244" y="-203" type="qcurve"/>
      <point x="267" y="-203"/>
      <point x="300" y="-178"/>
      <point x="305" y="-158" type="qcurve"/>
      <point x="330" y="-169" type="line"/>
      <point x="319" y="-201"/>
      <point x="271" y="-233"/>
      <point x="242" y="-233" type="qcurve"/>
      <point x="203" y="-233"/>
      <point x="151" y="-181"/>
      <point x="151" y="-132" type="qcurve"/>
      <point x="151" y="-115"/>
      <point x="169" y="-77"/>
      <point x="192" y="-61" type="qcurve"/>
      <point x="205" y="-53"/>
      <point x="232" y="-33"/>
      <point x="233" y="-7" type="qcurve"/>
      <point x="192" y="-5"/>
      <point x="122" y="28"/>
      <point x="71" y="82"/>
      <point x="42" y="153"/>
      <point x="42" y="194" type="qcurve"/>
      <point x="42" y="236"/>
      <point x="74" y="310"/>
      <point x="128" y="365"/>
      <point x="201" y="397"/>
      <point x="243" y="397" type="qcurve"/>
      <point x="307" y="397"/>
      <point x="398" y="322"/>
      <point x="420" y="264" type="qcurve"/>
      <point x="384" y="250"/>
      <point x="300" y="216"/>
      <point x="212" y="180"/>
      <point x="126" y="145"/>
      <point x="88" y="130" type="qcurve"/>
      <point x="107" y="84"/>
      <point x="190" y="27"/>
      <point x="243" y="27" type="qcurve"/>
      <point x="277" y="27"/>
      <point x="337" y="51"/>
      <point x="359" y="72" type="qcurve"/>
    </contour>
    <contour>
      <point x="376" y="274" type="qcurve"/>
      <point x="358" y="314"/>
      <point x="289" y="362"/>
      <point x="243" y="362" type="qcurve"/>
      <point x="208" y="362"/>
      <point x="147" y="335"/>
      <point x="102" y="290"/>
      <point x="76" y="229"/>
      <point x="76" y="195" type="qcurve"/>
      <point x="76" y="184"/>
      <point x="79" y="164"/>
      <point x="81" y="154" type="qcurve"/>
      <point x="115" y="168"/>
      <point x="191" y="199"/>
      <point x="268" y="230"/>
      <point x="343" y="260"/>
    </contour>
  </outline>
</glyph>
<glyph name="Hbar" format="1">
  <advance width="801"/>
  <unicode hex="0126"/>
  <outline>
    <contour>
      <point x="265" y="707" type="line"/>
      <point x="265" y="670" type="line"/>
      <point x="183" y="670" type="line"/>
      <point x="183" y="518" type="line"/>
      <point x="618" y="518" type="line"/>
      <point x="618" y="670" type="line"/>
      <point x="535" y="670" type="line"/>
      <point x="535" y="707" type="line"/>
      <point x="737" y="707" type="line"/>
      <point x="737" y="670" type="line"/>
      <point x="659" y="670" type="line"/>
      <point x="659" y="518" type="line"/>
      <point x="734" y="518" type="line"/>
      <point x="734" y="491" type="line"/>
      <point x="659" y="491" type="line"/>
      <point x="659" y="37" type="line"/>
      <point x="737" y="37" type="line"/>
      <point x="737" y="0" type="line"/>
      <point x="535" y="0" type="line"/>
      <point x="535" y="37" type="line"/>
      <point x="618" y="37" type="line"/>
      <point x="618" y="337" type="line"/>
      <point x="183" y="337" type="line"/>
      <point x="183" y="37" type="line"/>
      <point x="265" y="37" type="line"/>
      <point x="265" y="0" type="line"/>
      <point x="64" y="0" type="line"/>
      <point x="64" y="37" type="line"/>
      <point x="142" y="37" type="line"/>
      <point x="142" y="491" type="line"/>
      <point x="59" y="491" type="line"/>
      <point x="59" y="518" type="line"/>
      <point x="142" y="518" type="line"/>
      <point x="142" y="670" type="line"/>
      <point x="64" y="670" type="line"/>
      <point x="64" y="707" type="line"/>
    </contour>
    <contour>
      <point x="618" y="376" type="line"/>
      <point x="618" y="491" type="line"/>
      <point x="183" y="491" type="line"/>
      <point x="183" y="376" type="line"/>
    </contour>
  </outline>
</glyph>
<glyph name="itilde" format="1">
  <advance width="234"/>
  <unicode hex="0129"/>
  <outline>
    <contour>
      <point x="214" y="0" type="line"/>
      <point x="29" y="0" type="line"/>
      <point x="29" y="31" type="line"/>
      <point x="103" y="31" type="line"/>
      <point x="103" y="356" type="line"/>
      <point x="29" y="356" type="line"/>
      <point x="29" y="387" type="line"/>
      <point x="138" y="387" type="line"/>
      <point x="138" y="31" type="line"/>
      <point x="214" y="31" type="line"/>
    </contour>
    <contour>
      <point x="111" y="500" type="qcurve"/>
      <point x="95" y="517"/>
      <point x="71" y="529"/>
      <point x="57" y="529" type="qcurve"/>
      <point x="49" y="529"/>
      <point x="30" y="525"/>
      <point x="11" y="513"/>
      <point x="-3" y="492"/>
      <point x="-5" y="476" type="qcurve"/>
      <point x="-28" y="479" type="line"/>
      <point x="-27" y="498"/>
      <point x="-11" y="526"/>
      <point x="13" y="544"/>
      <point x="43" y="553"/>
      <point x="57" y="553" type="qcurve"/>
      <point x="78" y="553"/>
      <point x="113" y="533"/>
      <point x="129" y="516" type="qcurve"/>
      <point x="145" y="499"/>
      <point x="169" y="487"/>
      <point x="183" y="487" type="qcurve"/>
      <point x="190" y="487"/>
      <point x="210" y="491"/>
      <point x="229" y="503"/>
      <point x="243" y="524"/>
      <point x="245" y="540" type="qcurve"/>
      <point x="268" y="537" type="line"/>
      <point x="267" y="518"/>
      <point x="251" y="491"/>
      <point x="227" y="473"/>
      <point x="197" y="464"/>
      <point x="183" y="464" type="qcurve"/>
      <point x="162" y="464"/>
      <point x="127" y="483"/>
    </contour>
  </outline>
</glyph>
<glyph name="Imacron" format="1">
  <advance width="320"/>
  <unicode hex="012A"/>
  <outline>
    <contour>
      <point x="262" y="707" type="line"/>
      <point x="262" y="670" type="line"/>
      <point x="180" y="670" type="line"/>
      <point x="180" y="37" type="line"/>
      <point x="262" y="37" type="line"/>
      <point x="262" y="0" type="line"/>
      <point x="61" y="0" type="line"/>
      <point x="61" y="37" type="line"/>
      <point x="139" y="37" type="line"/>
      <point x="139" y="670" type="line"/>
      <point x="61" y="670" type="line"/>
      <point x="61" y="707" type="line"/>
    </contour>
    <contour>
      <point x="45" y="761" type="line"/>
      <point x="45" y="788" type="line"/>
      <point x="276" y="788" type="line"/>
      <point x="276" y="761" type="line"/>
    </contour>
  </outline>
</glyph>
<glyph name="Lacute" format="1">
  <advance width="604"/>
  <unicode hex="0139"/>
  <outline>
    <contour>
      <point x="263" y="707" type="line"/>
      <point x="263" y="670" type="line"/>
      <point x="180" y="670" type="line"/>
      <point x="180" y="40" type="line"/>
      <point x="541" y="40" type="line"/>
      <point x="541" y="114" type="line"/>
      <point x="580" y="114" type="line"/>
      <point x="580" y="16" type="line"/>
      <point x="572" y="16" type="line"/>
      <point x="572" y="0" type="line"/>
      <point x="62" y="0" type="line"/>
      <point x="62" y="37" type="line"/>
      <point x="139" y="37" type="line"/>
      <point x="139" y="670" type="line"/>
      <point x="62" y="670" type="line"/>
      <point x="62" y="707" type="line"/>
    </contour>
    <contour>
      <point x="280" y="755" type="line"/>
      <point x="303" y="788"/>
      <point x="348" y="855"/>
      <point x="371" y="888" type="qcurve"/>
      <point x="409" y="888" type="line"/>
      <point x="310" y="755" type="line"/>
    </contour>
  </outline>
</glyph>
<glyph name="uni013C" format="1">
  <advance width="226"/>
  <unicode hex="013C"/>
  <outline>
    <contour>
      <point x="206" y="0" type="line"/>
      <point x="21" y="0" type="line"/>
      <point x="21" y="31" type="line"/>
      <point x="95" y="31" type="line"/>
      <point x="95" y="727" type="line"/>
      <point x="21" y="727" type="line"/>
      <point x="21" y="758" type="line"/>
      <point x="130" y="758" type="line"/>
      <point x="130" y="31" type="line"/>
      <point x="206" y="31" type="line"/>
    </contour>
    <contour>
      <point x="122" y="-22" type="line"/>
      <point x="111" y="-48"/>
      <point x="97" y="-80"/>
      <point x="84" y="-109"/>
      <point x="70" y="-142"/>
      <point x="59" y="-168" type="qcurve"/>
      <point x="28" y="-168" type="line"/>
      <point x="38" y="-142"/>
      <point x="49" y="-109"/>
      <point x="60" y="-80"/>
      <point x="72" y="-48"/>
      <point x="82" y="-22" type="qcurve"/>
    </contour>
  </outline>
</glyph>
<glyph name="Lcaron" format="1">
  <advance width="604"/>
  <unicode hex="013D"/>
  <outline>
    <contour>
      <point x="263" y="707" type="line"/>
      <point x="263" y="670" type="line"/>
      <point x="180" y="670" type="line"/>
      <point x="180" y="40" type="line"/>
      <point x="541" y="40" type="line"/>
      <point x="541" y="114" type="line"/>
      <point x="580" y="114" type="line"/>
      <point x="580" y="16" type="line"/>
      <point x="572" y="16" type="line"/>
      <point x="572" y="0" type="line"/>
      <point x="62" y="0" type="line"/>
      <point x="62" y="37" type="line"/>
      <point x="139" y="37" type="line"/>
      <point x="139" y="670" type="line"/>
      <point x="62" y="670" type="line"/>
      <point x="62" y="707" type="line"/>
    </contour>
    <contour>
      <point x="298" y="572" type="qcurve"/>
      <point x="281" y="592" type="line"/>
      <point x="302" y="612"/>
      <point x="321" y="672"/>
      <point x="314" y="707" type="qcurve"/>
      <point x="343" y="714" type="line"/>
      <point x="351" y="673"/>
      <point x="327" y="599"/>
    </contour>
  </outline>
</glyph>
<glyph name="lcaron" format="1">
  <advance width="226"/>
  <unicode hex="013E"/>
  <outline>
    <contour>
      <point x="130" y="758" type="line"/>
      <point x="130" y="31" type="line"/>
      <point x="206" y="31" type="line"/>
      <point x="206" y="0" type="line"/>
      <point x="21" y="0" type="line"/>
      <point x="21" y="31" type="line"/>
      <point x="95" y="31" type="line"/>
      <point x="95" y="727" type="line"/>
      <point x="21" y="727" type="line"/>
      <point x="21" y="758" type="line"/>
    </contour>
    <contour>
      <point x="205" y="572" type="qcurve"/>
      <point x="188" y="592" type="line"/>
      <point x="209" y="612"/>
      <point x="228" y="672"/>
      <point x="221" y="707" type="qcurve"/>
      <point x="250" y="714" type="line"/>
      <point x="258" y="673"/>
      <point x="234" y="599"/>
    </contour>
  </outline>
</glyph>
<glyph name="uni0145" format="1">
  <advance width="858"/>
  <unicode hex="0145"/>
  <outline>
    <contour>
      <point x="261" y="37" type="line"/>
      <point x="261" y="0" type="line"/>
      <point x="60" y="0" type="line"/>
      <point x="60" y="37" type="line"/>
      <point x="138" y="37" type="line"/>
      <point x="138" y="670" type="line"/>
      <point x="59" y="670" type="line"/>
      <point x="59" y="707" type="line"/>
      <point x="165" y="707" type="line"/>
      <point x="223" y="634"/>
      <point x="354" y="476"/>
      <point x="487" y="317"/>
      <point x="615" y="161"/>
      <point x="670" y="91" type="qcurve"/>
      <point x="689" y="65" type="line"/>
      <point x="686" y="97" type="line"/>
      <point x="686" y="671" type="line"/>
      <point x="602" y="671" type="line"/>
      <point x="602" y="708" type="line"/>
      <point x="803" y="708" type="line"/>
      <point x="803" y="671" type="line"/>
      <point x="727" y="671" type="line"/>
      <point x="727" y="-32" type="line"/>
      <point x="670" y="39"/>
      <point x="528" y="207"/>
      <point x="383" y="381"/>
      <point x="247" y="548"/>
      <point x="195" y="617" type="qcurve"/>
      <point x="176" y="643" type="line"/>
      <point x="179" y="611" type="line"/>
      <point x="179" y="37" type="line"/>
    </contour>
    <contour>
      <point x="460" y="-22" type="line"/>
      <point x="449" y="-48"/>
      <point x="435" y="-80"/>
      <point x="422" y="-109"/>
      <point x="408" y="-142"/>
      <point x="397" y="-168" type="qcurve"/>
      <point x="366" y="-168" type="line"/>
      <point x="376" y="-142"/>
      <point x="387" y="-109"/>
      <point x="398" y="-80"/>
      <point x="410" y="-48"/>
      <point x="420" y="-22" type="qcurve"/>
    </contour>
  </outline>
</glyph>
<glyph name="Ncaron" format="1">
  <advance width="858"/>
  <unicode hex="0147"/>
  <outline>
    <contour>
      <point x="261" y="37" type="line"/>
      <point x="261" y="0" type="line"/>
      <point x="60" y="0" type="line"/>
      <point x="60" y="37" type="line"/>
      <point x="138" y="37" type="line"/>
      <point x="138" y="670" type="line"/>
      <point x="59" y="670" type="line"/>
      <point x="59" y="707" type="line"/>
      <point x="165" y="707" type="line"/>
      <point x="223" y="634"/>
      <point x="354" y="476"/>
      <point x="487" y="317"/>
      <point x="615" y="161"/>
      <point x="670" y="91" type="qcurve"/>
      <point x="689" y="65" type="line"/>
      <point x="686" y="97" type="line"/>
      <point x="686" y="671" type="line"/>
      <point x="602" y="671" type="line"/>
      <point x="602" y="708" type="line"/>
      <point x="803" y="708" type="line"/>
      <point x="803" y="671" type="line"/>
      <point x="727" y="671" type="line"/>
      <point x="727" y="-32" type="line"/>
      <point x="670" y="39"/>
      <point x="528" y="207"/>
      <point x="383" y="381"/>
      <point x="247" y="548"/>
      <point x="195" y="617" type="qcurve"/>
      <point x="176" y="643" type="line"/>
      <point x="179" y="611" type="line"/>
      <point x="179" y="37" type="line"/>
    </contour>
    <contour>
      <point x="410" y="733" type="qcurve"/>
      <point x="379" y="765"/>
      <point x="353" y="792" type="qcurve"/>
      <point x="331" y="815"/>
      <point x="292" y="856"/>
      <point x="289" y="861" type="qcurve"/>
      <point x="319" y="861" type="line"/>
      <point x="410" y="778" type="line"/>
      <point x="501" y="861" type="line"/>
      <point x="530" y="861" type="line"/>
      <point x="526" y="856"/>
      <point x="489" y="815"/>
      <point x="467" y="792" type="qcurve"/>
      <point x="441" y="765"/>
    </contour>
  </outline>
</glyph>
<glyph name="ncaron" format="1">
  <advance width="513"/>
  <unicode hex="0148"/>
  <outline>
    <contour>
      <point x="424" y="280" type="qcurve"/>
      <point x="424" y="31" type="line"/>
      <point x="498" y="31" type="line"/>
      <point x="498" y="0" type="line"/>
      <point x="314" y="0" type="line"/>
      <point x="314" y="31" type="line"/>
      <point x="390" y="31" type="line"/>
      <point x="390" y="274" type="line"/>
      <point x="388" y="309"/>
      <point x="341" y="359"/>
      <point x="297" y="361" type="qcurve"/>
      <point x="264" y="361"/>
      <point x="207" y="339"/>
      <point x="163" y="301"/>
      <point x="138" y="247"/>
      <point x="138" y="216" type="qcurve"/>
      <point x="138" y="31" type="line"/>
      <point x="214" y="31" type="line"/>
      <point x="214" y="0" type="line"/>
      <point x="29" y="0" type="line"/>
      <point x="29" y="31" type="line"/>
      <point x="103" y="31" type="line"/>
      <point x="103" y="356" type="line"/>
      <point x="29" y="356" type="line"/>
      <point x="29" y="387" type="line"/>
      <point x="131" y="387" type="line"/>
      <point x="131" y="383"/>
      <point x="132" y="353"/>
      <point x="134" y="319"/>
      <point x="135" y="290"/>
      <point x="135" y="287" type="qcurve"/>
      <point x="156" y="335"/>
      <point x="243" y="395"/>
      <point x="301" y="395" type="qcurve"/>
      <point x="357" y="395"/>
      <point x="422" y="331"/>
    </contour>
    <contour>
      <point x="255" y="481" type="qcurve"/>
      <point x="224" y="513"/>
      <point x="198" y="540" type="qcurve"/>
      <point x="176" y="563"/>
      <point x="137" y="604"/>
      <point x="134" y="609" type="qcurve"/>
      <point x="164" y="609" type="line"/>
      <point x="255" y="526" type="line"/>
      <point x="346" y="609" type="line"/>
      <point x="375" y="609" type="line"/>
      <point x="371" y="604"/>
      <point x="334" y="563"/>
      <point x="312" y="540" type="qcurve"/>
      <point x="286" y="513"/>
    </contour>
  </outline>
</glyph>
<glyph name="oe" format="1">
  <advance width="672"/>
  <unicode hex="0153"/>
  <outline>
    <contour>
      <point x="614" y="47" type="line"/>
      <point x="587" y="22"/>
      <point x="514" y="-7"/>
      <point x="473" y="-7" type="qcurve"/>
      <point x="441" y="-7"/>
      <point x="383" y="11"/>
      <point x="359" y="27" type="qcurve"/>
      <point x="310" y="-7"/>
      <point x="244" y="-7" type="qcurve"/>
      <point x="202" y="-7"/>
      <point x="128" y="24"/>
      <point x="74" y="78"/>
      <point x="42" y="151"/>
      <point x="42" y="194" type="qcurve"/>
      <point x="42" y="236"/>
      <point x="74" y="310"/>
      <point x="129" y="365"/>
      <point x="203" y="397"/>
      <point x="245" y="397" type="qcurve"/>
      <point x="277" y="397"/>
      <point x="334" y="378"/>
      <point x="358" y="362" type="qcurve"/>
      <point x="383" y="379"/>
      <point x="440" y="397"/>
      <point x="472" y="397" type="qcurve"/>
      <point x="536" y="397"/>
      <point x="627" y="322"/>
      <point x="649" y="264" type="qcurve"/>
      <point x="613" y="250"/>
      <point x="529" y="216"/>
      <point x="441" y="180"/>
      <point x="355" y="145"/>
      <point x="317" y="130" type="qcurve"/>
      <point x="336" y="84"/>
      <point x="419" y="27"/>
      <point x="472" y="27" type="qcurve"/>
      <point x="506" y="27"/>
      <point x="566" y="51"/>
      <point x="588" y="72" type="qcurve"/>
    </contour>
    <contour>
      <point x="244" y="362" type="qcurve"/>
      <point x="209" y="362"/>
      <point x="148" y="336"/>
      <point x="103" y="290"/>
      <point x="77" y="229"/>
      <point x="77" y="194" type="qcurve"/>
      <point x="77" y="159"/>
      <point x="103" y="98"/>
      <point x="148" y="53"/>
      <point x="209" y="27"/>
      <point x="244" y="27" type="qcurve"/>
      <point x="267" y="27"/>
      <point x="311" y="39"/>
      <point x="331" y="50" type="qcurve"/>
      <point x="302" y="78"/>
      <point x="271" y="151"/>
      <point x="271" y="194" type="qcurve"/>
      <point x="271" y="236"/>
      <point x="303" y="310"/>
      <point x="330" y="338" type="qcurve"/>
      <point x="311" y="349"/>
      <point x="267" y="362"/>
    </contour>
    <contour>
      <point x="605" y="274" type="qcurve"/>
      <point x="587" y="314"/>
      <point x="518" y="362"/>
      <point x="472" y="362" type="qcurve"/>
      <point x="437" y="362"/>
      <point x="376" y="335"/>
      <point x="331" y="290"/>
      <point x="305" y="229"/>
      <point x="305" y="195" type="qcurve"/>
      <point x="305" y="184"/>
      <point x="308" y="164"/>
      <point x="310" y="154" type="qcurve"/>
      <point x="344" y="168"/>
      <point x="420" y="199"/>
      <point x="497" y="230"/>
      <point x="572" y="260"/>
    </contour>
  </outline>
</glyph>
<glyph name="racute" format="1">
  <advance width="313"/>
  <unicode hex="0155"/>
  <outline>
    <contour>
      <point x="138" y="214" type="qcurve"/>
      <point x="138" y="31" type="line"/>
      <point x="222" y="31" type="line"/>
      <point x="222" y="0" type="line"/>
      <point x="29" y="0" type="line"/>
      <point x="29" y="31" type="line"/>
      <point x="103" y="31" type="line"/>
      <point x="103" y="356" type="line"/>
      <point x="29" y="356" type="line"/>
      <point x="29" y="387" type="line"/>
      <point x="132" y="387" type="line"/>
      <point x="132" y="383"/>
      <point x="133" y="353"/>
      <point x="134" y="319"/>
      <point x="135" y="290"/>
      <point x="135" y="287" type="qcurve"/>
      <point x="158" y="337"/>
      <point x="250" y="394"/>
      <point x="301" y="395" type="qcurve"/>
      <point x="295" y="354" type="line"/>
      <point x="264" y="353"/>
      <point x="207" y="333"/>
      <point x="164" y="296"/>
      <point x="138" y="245"/>
    </contour>
    <contour>
      <point x="130" y="481" type="line"/>
      <point x="153" y="514"/>
      <point x="198" y="581"/>
      <point x="221" y="614" type="qcurve"/>
      <point x="259" y="614" type="line"/>
      <point x="160" y="481" type="line"/>
    </contour>
  </outline>
</glyph>
<glyph name="rcaron" format="1">
  <advance width="313"/>
  <unicode hex="0159"/>
  <outline>
    <contour>
      <point x="138" y="214" type="qcurve"/>
      <point x="138" y="31" type="line"/>
      <point x="222" y="31" type="line"/>
      <point x="222" y="0" type="line"/>
      <point x="29" y="0" type="line"/>
      <point x="29" y="31" type="line"/>
      <point x="103" y="31" type="line"/>
      <point x="103" y="356" type="line"/>
      <point x="29" y="356" type="line"/>
      <point x="29" y="387" type="line"/>
      <point x="132" y="387" type="line"/>
      <point x="132" y="383"/>
      <point x="133" y="353"/>
      <point x="134" y="319"/>
      <point x="135" y="290"/>
      <point x="135" y="287" type="qcurve"/>
      <point x="158" y="337"/>
      <point x="250" y="394"/>
      <point x="301" y="395" type="qcurve"/>
      <point x="295" y="354" type="line"/>
      <point x="264" y="353"/>
      <point x="207" y="333"/>
      <point x="164" y="296"/>
      <point x="138" y="245"/>
    </contour>
    <contour>
      <point x="164" y="481" type="qcurve"/>
      <point x="133" y="513"/>
      <point x="107" y="540" type="qcurve"/>
      <point x="85" y="563"/>
      <point x="46" y="604"/>
      <point x="43" y="609" type="qcurve"/>
      <point x="73" y="609" type="line"/>
      <point x="164" y="526" type="line"/>
      <point x="255" y="609" type="line"/>
      <point x="284" y="609" type="line"/>
      <point x="280" y="604"/>
      <point x="243" y="563"/>
      <point x="221" y="540" type="qcurve"/>
      <point x="195" y="513"/>
    </contour>
  </outline>
</glyph>
<glyph name="scaron" format="1">
  <advance width="335"/>
  <unicode hex="0161"/>
  <outline>
    <contour>
      <point x="75" y="99" type="line"/>
      <point x="75" y="54" type="line"/>
      <point x="82" y="48"/>
      <point x="104" y="38"/>
      <point x="128" y="31"/>
      <point x="154" y="26"/>
      <point x="165" y="26" type="qcurve"/>
      <point x="178" y="26"/>
      <point x="209" y="34"/>
      <point x="237" y="52"/>
      <point x="256" y="82"/>
      <point x="256" y="103" type="qcurve"/>
      <point x="256" y="129"/>
      <point x="227" y="159"/>
      <point x="183" y="180"/>
      <point x="131" y="196"/>
      <point x="87" y="221"/>
      <point x="58" y="260"/>
      <point x="58" y="292" type="qcurve"/>
      <point x="58" y="318"/>
      <point x="77" y="356"/>
      <point x="109" y="381"/>
      <point x="149" y="393"/>
      <point x="169" y="393" type="qcurve"/>
      <point x="192" y="393"/>
      <point x="254" y="374"/>
      <point x="275" y="351" type="qcurve"/>
      <point x="275" y="290" type="line"/>
      <point x="245" y="290" type="line"/>
      <point x="245" y="336" type="line"/>
      <point x="231" y="347"/>
      <point x="190" y="359"/>
      <point x="170" y="359" type="qcurve"/>
      <point x="158" y="359"/>
      <point x="130" y="352"/>
      <point x="108" y="336"/>
      <point x="93" y="311"/>
      <point x="93" y="293" type="qcurve"/>
      <point x="93" y="268"/>
      <point x="122" y="238"/>
      <point x="166" y="217"/>
      <point x="217" y="200"/>
      <point x="261" y="176"/>
      <point x="290" y="137"/>
      <point x="290" y="106" type="qcurve"/>
      <point x="290" y="83"/>
      <point x="273" y="41"/>
      <point x="241" y="10"/>
      <point x="194" y="-8"/>
      <point x="164" y="-8" type="qcurve"/>
      <point x="135" y="-8"/>
      <point x="66" y="12"/>
      <point x="44" y="38" type="qcurve"/>
      <point x="44" y="99" type="line"/>
    </contour>
    <contour>
      <point x="169" y="481" type="qcurve"/>
      <point x="138" y="513"/>
      <point x="112" y="540" type="qcurve"/>
      <point x="90" y="563"/>
      <point x="51" y="604"/>
      <point x="48" y="609" type="qcurve"/>
      <point x="78" y="609" type="line"/>
      <point x="169" y="526" type="line"/>
      <point x="260" y="609" type="line"/>
      <point x="289" y="609" type="line"/>
      <point x="285" y="604"/>
      <point x="248" y="563"/>
      <point x="226" y="540" type="qcurve"/>
      <point x="200" y="513"/>
    </contour>
  </outline>
</glyph>
<glyph name="uni0162" format="1">
  <advance width="547"/>
  <unicode hex="0162"/>
  <outline>
    <contour>
      <point x="459" y="572" type="line"/>
      <point x="459" y="667" type="line"/>
      <point x="294" y="667" type="line"/>
      <point x="294" y="0" type="line"/>
      <point x="253" y="0" type="line"/>
      <point x="253" y="667" type="line"/>
      <point x="88" y="667" type="line"/>
      <point x="88" y="572" type="line"/>
      <point x="49" y="572" type="line"/>
      <point x="49" y="707" type="line"/>
      <point x="498" y="707" type="line"/>
      <point x="498" y="572" type="line"/>
    </contour>
    <contour>
      <point x="286" y="-22" type="line"/>
      <point x="275" y="-48"/>
      <point x="261" y="-80"/>
      <point x="248" y="-109"/>
      <point x="234" y="-142"/>
      <point x="223" y="-168" type="qcurve"/>
      <point x="192" y="-168" type="line"/>
      <point x="202" y="-142"/>
      <point x="213" y="-109"/>
      <point x="224" y="-80"/>
      <point x="236" y="-48"/>
      <point x="246" y="-22" type="qcurve"/>
    </contour>
  </outline>
</glyph>
<glyph name="utilde" format="1">
  <advance width="505"/>
  <unicode hex="0169"/>
  <outline>
    <contour>
      <point x="485" y="0" type="line"/>
      <point x="383" y="0" type="line"/>
      <point x="380" y="101" type="line"/>
      <point x="359" y="52"/>
      <point x="272" y="-8"/>
      <point x="213" y="-8" type="qcurve"/>
      <point x="157" y="-8"/>
      <point x="92" y="57"/>
      <point x="90" y="108" type="qcurve"/>
      <point x="90" y="356" type="line"/>
      <point x="16" y="356" type="line"/>
      <point x="16" y="387" type="line"/>
      <point x="125" y="387" type="line"/>
      <point x="125" y="114" type="line"/>
      <point x="127" y="79"/>
      <point x="173" y="29"/>
      <point x="217" y="26" type="qcurve"/>
      <point x="250" y="26"/>
      <point x="308" y="48"/>
      <point x="351" y="86"/>
      <point x="377" y="139"/>
      <point x="377" y="171" type="qcurve"/>
      <point x="377" y="356" type="line"/>
      <point x="300" y="356" type="line"/>
      <point x="300" y="387" type="line"/>
      <point x="411" y="387" type="line"/>
      <point x="411" y="31" type="line"/>
      <point x="485" y="31" type="line"/>
    </contour>
    <contour>
      <point x="245" y="492" type="qcurve"/>
      <point x="229" y="509"/>
      <point x="205" y="521"/>
      <point x="191" y="521" type="qcurve"/>
      <point x="183" y="521"/>
      <point x="164" y="517"/>
      <point x="145" y="505"/>
      <point x="131" y="484"/>
      <point x="129" y="468" type="qcurve"/>
      <point x="106" y="471" type="line"/>
      <point x="107" y="490"/>
      <point x="123" y="518"/>
      <point x="147" y="536"/>
      <point x="177" y="545"/>
      <point x="191" y="545" type="qcurve"/>
      <point x="212" y="545"/>
      <point x="247" y="525"/>
      <point x="263" y="508" type="qcurve"/>
      <point x="279" y="491"/>
      <point x="303" y="479"/>
      <point x="317" y="479" type="qcurve"/>
      <point x="324" y="479"/>
      <point x="344" y="483"/>
      <point x="363" y="495"/>
      <point x="377" y="516"/>
      <point x="379" y="532" type="qcurve"/>
      <point x="402" y="529" type="line"/>
      <point x="401" y="510"/>
      <point x="385" y="483"/>
      <point x="361" y="465"/>
      <point x="331" y="456"/>
      <point x="317" y="456" type="qcurve"/>
      <point x="296" y="456"/>
      <point x="261" y="475"/>
    </contour>
  </outline>
</glyph>
<glyph name="umacron" format="1">
  <advance width="505"/>
  <unicode hex="016B"/>
  <outline>
    <contour>
      <point x="377" y="171" type="qcurve"/>
      <point x="377" y="356" type="line"/>
      <point x="300" y="356" type="line"/>
      <point x="300" y="387" type="line"/>
      <point x="411" y="387" type="line"/>
      <point x="411" y="31" type="line"/>
      <point x="485" y="31" type="line"/>
      <point x="485" y="0" type="line"/>
      <point x="383" y="0" type="line"/>
      <point x="380" y="101" type="line"/>
      <point x="359" y="52"/>
      <point x="272" y="-8"/>
      <point x="213" y="-8" type="qcurve"/>
      <point x="157" y="-8"/>
      <point x="92" y="57"/>
      <point x="90" y="108" type="qcurve"/>
      <point x="90" y="356" type="line"/>
      <point x="16" y="356" type="line"/>
      <point x="16" y="387" type="line"/>
      <point x="125" y="387" type="line"/>
      <point x="125" y="114" type="line"/>
      <point x="127" y="79"/>
      <point x="173" y="29"/>
      <point x="217" y="26" type="qcurve"/>
      <point x="250" y="26"/>
      <point x="308" y="48"/>
      <point x="351" y="86"/>
      <point x="377" y="139"/>
    </contour>
    <contour>
      <point x="138" y="489" type="line"/>
      <point x="138" y="516" type="line"/>
      <point x="369" y="516" type="line"/>
      <point x="369" y="489" type="line"/>
    </contour>
  </outline>
</glyph>
<glyph name="ubreve" format="1">
  <advance width="505"/>
  <unicode hex="016D"/>
  <outline>
    <contour>
      <point x="377" y="171" type="qcurve"/>
      <point x="377" y="356" type="line"/>
      <point x="300" y="356" type="line"/>
      <point x="300" y="387" type="line"/>
      <point x="411" y="387" type="line"/>
      <point x="411" y="31" type="line"/>
      <point x="485" y="31" type="line"/>
      <point x="485" y="0" type="line"/>
      <point x="383" y="0" type="line"/>
      <point x="380" y="101" type="line"/>
      <point x="359" y="52"/>
      <point x="272" y="-8"/>
      <point x="213" y="-8" type="qcurve"/>
      <point x="157" y="-8"/>
      <point x="92" y="57"/>
      <point x="90" y="108" type="qcurve"/>
      <point x="90" y="356" type="line"/>
      <point x="16" y="356" type="line"/>
      <point x="16" y="387" type="line"/>
      <point x="125" y="387" type="line"/>
      <point x="125" y="114" type="line"/>
      <point x="127" y="79"/>
      <point x="173" y="29"/>
      <point x="217" y="26" type="qcurve"/>
      <point x="250" y="26"/>
      <point x="308" y="48"/>
      <point x="351" y="86"/>
      <point x="377" y="139"/>
    </contour>
    <contour>
      <point x="246" y="500" type="qcurve"/>
      <point x="213" y="500"/>
      <point x="154" y="524"/>
      <point x="110" y="566"/>
      <point x="84" y="624"/>
      <point x="83" y="657" type="qcurve"/>
      <point x="108" y="657" type="line"/>
      <point x="109" y="630"/>
      <point x="130" y="582"/>
      <point x="166" y="545"/>
      <point x="216" y="524"/>
      <point x="246" y="524" type="qcurve"/>
      <point x="276" y="524"/>
      <point x="325" y="545"/>
      <point x="361" y="582"/>
      <point x="381" y="630"/>
      <point x="382" y="657" type="qcurve"/>
      <point x="407" y="657" type="line"/>
      <point x="407" y="624"/>
      <point x="381" y="566"/>
      <point x="337" y="524"/>
      <point x="279" y="500"/>
    </contour>
  </outline>
</glyph>
<glyph name="Uogonek" format="1">
  <advance width="724"/>
  <unicode hex="0172"/>
  <outline>
    <contour>
      <point x="245" y="707" type="line"/>
      <point x="245" y="670" type="line"/>
      <point x="164" y="670" type="line"/>
      <point x="164" y="238" type="line"/>
      <point x="164" y="190"/>
      <point x="194" y="113"/>
      <point x="246" y="59"/>
      <point x="319" y="31"/>
      <point x="362" y="31" type="qcurve"/>
      <point x="404" y="31"/>
      <point x="477" y="59"/>
      <point x="531" y="113"/>
      <point x="561" y="190"/>
      <point x="561" y="238" type="qcurve"/>
      <point x="561" y="707" type="line"/>
      <point x="681" y="707" type="line"/>
      <point x="681" y="670" type="line"/>
      <point x="602" y="670" type="line"/>
      <point x="602" y="235" type="line"/>
      <point x="602" y="179"/>
      <point x="568" y="92"/>
      <point x="508" y="30"/>
      <point x="427" y="-4"/>
      <point x="380" y="-7" type="qcurve"/>
      <point x="380" y="-22" type="line"/>
      <point x="380" y="-41"/>
      <point x="355" y="-62"/>
      <point x="326" y="-83"/>
      <point x="301" y="-111"/>
      <point x="301" y="-136" type="qcurve"/>
      <point x="301" y="-165"/>
      <point x="336" y="-203"/>
      <point x="365" y="-203" type="qcurve"/>
      <point x="388" y="-203"/>
      <point x="421" y="-178"/>
      <point x="427" y="-158" type="qcurve"/>
      <point x="452" y="-169" type="line"/>
      <point x="441" y="-201"/>
      <point x="392" y="-233"/>
      <point x="363" y="-233" type="qcurve"/>
      <point x="324" y="-233"/>
      <point x="272" y="-181"/>
      <point x="272" y="-132" type="qcurve"/>
      <point x="272" y="-115"/>
      <point x="291" y="-77"/>
      <point x="313" y="-61" type="qcurve"/>
      <point x="319" y="-57"/>
      <point x="333" y="-49"/>
      <point x="345" y="-37"/>
      <point x="354" y="-21"/>
      <point x="354" y="-8" type="qcurve"/>
      <point x="304" y="-7"/>
      <point x="220" y="27"/>
      <point x="158" y="89"/>
      <point x="123" y="178"/>
      <point x="123" y="235" type="qcurve"/>
      <point x="123" y="670" type="line"/>
      <point x="44" y="670" type="line"/>
      <point x="44" y="707" type="line"/>
    </contour>
  </outline>
</glyph>
<glyph name="Zcaron" format="1">
  <advance width="652"/>
  <unicode hex="017D"/>
  <outline>
    <contour>
      <point x="117" y="707" type="qcurve"/>
      <point x="579" y="707" type="line"/>
      <point x="91" y="40" type="line"/>
      <point x="568" y="40" type="line"/>
      <point x="568" y="161" type="line"/>
      <point x="607" y="161" type="line"/>
      <point x="607" y="0" type="line"/>
      <point x="19" y="0" type="line"/>
      <point x="70" y="71"/>
      <point x="197" y="249"/>
      <point x="329" y="432"/>
      <point x="456" y="606"/>
      <point x="507" y="673" type="qcurve"/>
      <point x="115" y="673" type="line"/>
      <point x="83" y="673"/>
      <point x="47" y="694"/>
      <point x="47" y="723" type="qcurve"/>
      <point x="47" y="743" type="line"/>
      <point x="87" y="743" type="line"/>
      <point x="87" y="730" type="line"/>
      <point x="87" y="719"/>
      <point x="100" y="707"/>
    </contour>
    <contour>
      <point x="322" y="741" type="qcurve"/>
      <point x="291" y="773"/>
      <point x="265" y="800" type="qcurve"/>
      <point x="243" y="823"/>
      <point x="204" y="864"/>
      <point x="201" y="869" type="qcurve"/>
      <point x="231" y="869" type="line"/>
      <point x="322" y="786" type="line"/>
      <point x="413" y="869" type="line"/>
      <point x="442" y="869" type="line"/>
      <point x="438" y="864"/>
      <point x="401" y="823"/>
      <point x="379" y="800" type="qcurve"/>
      <point x="353" y="773"/>
    </contour>
  </outline>
</glyph>
<glyph name="caron" format="1">
  <advance width="450"/>
  <unicode hex="02C7"/>
  <outline>
    <contour>
      <point x="233" y="481" type="qcurve"/>
      <point x="202" y="513"/>
      <point x="176" y="540" type="qcurve"/>
      <point x="154" y="563"/>
      <point x="115" y="604"/>
      <point x="112" y="609" type="qcurve"/>
      <point x="142" y="609" type="line"/>
      <point x="233" y="526" type="line"/>
      <point x="324" y="609" type="line"/>
      <point x="353" y="609" type="line"/>
      <point x="349" y="604"/>
      <point x="312" y="563"/>
      <point x="290" y="540" type="qcurve"/>
      <point x="264" y="513"/>
    </contour>
  </outline>
</glyph>
<glyph name="dotaccent" format="1">
  <advance width="202"/>
  <unicode hex="02D9"/>
  <outline>
    <contour>
      <point x="68" y="522" type="qcurve"/>
      <point x="68" y="535"/>
      <point x="86" y="553"/>
      <point x="98" y="553" type="qcurve"/>
      <point x="109" y="553"/>
      <point x="127" y="535"/>
      <point x="127" y="522" type="qcurve"/>
      <point x="127" y="509"/>
      <point x="109" y="492"/>
      <point x="98" y="492" type="qcurve"/>
      <point x="86" y="492"/>
      <point x="68" y="509"/>
    </contour>
  </outline>
</glyph>
<glyph name="ring" format="1">
  <advance width="451"/>
  <unicode hex="02DA"/>
  <outline>
    <contour>
      <point x="200" y="490" type="qcurve"/>
      <point x="200" y="472"/>
      <point x="226" y="445"/>
      <point x="245" y="445" type="qcurve"/>
      <point x="263" y="445"/>
      <point x="290" y="472"/>
      <point x="290" y="490" type="qcurve"/>
      <point x="290" y="508"/>
      <point x="263" y="535"/>
      <point x="245" y="535" type="qcurve"/>
      <point x="226" y="535"/>
      <point x="200" y="508"/>
    </contour>
    <contour>
      <point x="175" y="490" type="qcurve"/>
      <point x="175" y="519"/>
      <point x="216" y="560"/>
      <point x="245" y="560" type="qcurve"/>
      <point x="274" y="560"/>
      <point x="314" y="519"/>
      <point x="314" y="490" type="qcurve"/>
      <point x="314" y="461"/>
      <point x="274" y="421"/>
      <point x="245" y="421" type="qcurve"/>
      <point x="216" y="421"/>
      <point x="175" y="461"/>
    </contour>
  </outline>
</glyph>
<glyph name="emdash" format="1">
  <advance width="639"/>
  <unicode hex="2014"/>
  <outline>
    <contour>
      <point x="67" y="176" type="line"/>
      <point x="67" y="212" type="line"/>
      <point x="571" y="212" type="line"/>
      <point x="571" y="176" type="line"/>
    </contour>
  </outline>
</glyph>
<glyph name="quotedblleft" format="1">
  <advance width="290"/>
  <unicode hex="201C"/>
  <outline>
    <contour>
      <point x="230" y="592" type="qcurve"/>
      <point x="225" y="587"/>
      <point x="218" y="577"/>
      <point x="213" y="572" type="qcurve"/>
      <point x="184" y="599"/>
      <point x="159" y="673"/>
      <point x="167" y="714" type="qcurve"/>
      <point x="197" y="707" type="line"/>
      <point x="190" y="672"/>
      <point x="209" y="612"/>
    </contour>
    <contour>
      <point x="126" y="592" type="qcurve"/>
      <point x="116" y="582"/>
      <point x="109" y="572" type="qcurve"/>
      <point x="80" y="599"/>
      <point x="55" y="673"/>
      <point x="63" y="714" type="qcurve"/>
      <point x="93" y="707" type="line"/>
      <point x="86" y="672"/>
      <point x="105" y="612"/>
    </contour>
  </outline>
</glyph>
<glyph name="dagger" format="1">
  <advance width="338"/>
  <unicode hex="2020"/>
  <outline>
    <contour>
      <point x="151" y="53" type="line"/>
      <point x="151" y="411" type="line"/>
      <point x="69" y="411" type="line"/>
      <point x="69" y="447" type="line"/>
      <point x="151" y="447" type="line"/>
      <point x="151" y="584" type="line"/>
      <point x="187" y="584" type="line"/>
      <point x="187" y="447" type="line"/>
      <point x="269" y="447" type="line"/>
      <point x="269" y="411" type="line"/>
      <point x="187" y="411" type="line"/>
      <point x="187" y="53" type="line"/>
    </contour>
  </outline>
</glyph>
<glyph name="daggerdbl" format="1">
  <advance width="408"/>
  <unicode hex="2021"/>
  <outline>
    <contour>
      <point x="186" y="53" type="line"/>
      <point x="186" y="260" type="line"/>
      <point x="54" y="260" type="line"/>
      <point x="54" y="296" type="line"/>
      <point x="186" y="296" type="line"/>
      <point x="186" y="411" type="line"/>
      <point x="104" y="411" type="line"/>
      <point x="104" y="447" type="line"/>
      <point x="186" y="447" type="line"/>
      <point x="186" y="584" type="line"/>
      <point x="222" y="584" type="line"/>
      <point x="222" y="447" type="line"/>
      <point x="304" y="447" type="line"/>
      <point x="304" y="411" type="line"/>
      <point x="222" y="411" type="line"/>
      <point x="222" y="296" type="line"/>
      <point x="355" y="296" type="line"/>
      <point x="355" y="260" type="line"/>
      <point x="222" y="260" type="line"/>
      <point x="222" y="53" type="line"/>
    </contour>
  </outline>
</glyph>
<glyph name="bullet" format="1">
  <advance width="365"/>
  <unicode hex="2022"/>
  <outline>
    <contour>
      <point x="97" y="301" type="qcurve"/>
      <point x="97" y="337"/>
      <point x="147" y="387"/>
      <point x="182" y="387" type="qcurve"/>
      <point x="218" y="387"/>
      <point x="268" y="337"/>
      <point x="268" y="301" type="qcurve"/>
      <point x="268" y="266"/>
      <point x="218" y="216"/>
      <point x="182" y="216" type="qcurve"/>
      <point x="147" y="216"/>
      <point x="97" y="266"/>
    </contour>
  </outline>
</glyph>
<glyph name="guilsinglleft" format="1">
  <advance width="286"/>
  <unicode hex="2039"/>
  <outline>
    <contour>
      <point x="221" y="69" type="line"/>
      <point x="49" y="240" type="line"/>
      <point x="66" y="256"/>
      <point x="111" y="301"/>
      <point x="159" y="348"/>
      <point x="204" y="393"/>
      <point x="221" y="410" type="qcurve"/>
      <point x="221" y="368" type="line"/>
      <point x="192" y="339"/>
      <point x="128" y="269"/>
      <point x="99" y="240" type="qcurve"/>
      <point x="128" y="211"/>
      <point x="192" y="140"/>
      <point x="221" y="111" type="qcurve"/>
    </contour>
  </outline>
</glyph>
<glyph name="guilsinglright" format="1">
  <advance width="287"/>
  <unicode hex="203A"/>
  <outline>
    <contour>
      <point x="66" y="111" type="line"/>
      <point x="95" y="140"/>
      <point x="159" y="211"/>
      <point x="188" y="240" type="qcurve"/>
      <point x="159" y="269"/>
      <point x="95" y="339"/>
      <point x="66" y="368" type="qcurve"/>
      <point x="66" y="410" type="line"/>
      <point x="83" y="393"/>
      <point x="128" y="348"/>
      <point x="176" y="301"/>
      <point x="221" y="256"/>
      <point x="238" y="240" type="qcurve"/>
      <point x="66" y="69" type="line"/>
    </contour>
  </outline>
</glyph>
<glyph name="fraction" format="1">
  <advance width="327"/>
  <unicode hex="2044"/>
  <outline>
    <contour>
      <point x="5" y="0" type="line"/>
      <point x="76" y="191"/>
      <point x="214" y="567"/>
      <point x="284" y="758" type="qcurve"/>
      <point x="321" y="758" type="line"/>
      <point x="250" y="567"/>
      <point x="112" y="191"/>
      <point x="42" y="0" type="qcurve"/>
    </contour>
  </outline>
</glyph>
<glyph name="product" format="1">
  <advance width="442"/>
  <unicode hex="220F"/>
  <outline>
    <contour>
      <point x="151" y="-58" type="line"/>
      <point x="115" y="-58" type="line"/>
      <point x="115" y="753" type="line"/>
      <point x="327" y="753" type="line"/>
      <point x="327" y="-58" type="line"/>
      <point x="291" y="-58" type="line"/>
      <point x="291" y="718" type="line"/>
      <point x="151" y="718" type="line"/>
    </contour>
  </outline>
</glyph>
<glyph name="radical" format="1">
  <advance width="549"/>
  <unicode hex="221A"/>
  <outline>
    <contour>
      <point x="40" y="368" type="line"/>
      <point x="145" y="368" type="line"/>
      <point x="263" y="116" type="line"/>
      <point x="490" y="604" type="line"/>
      <point x="520" y="604" type="line"/>
      <point x="263" y="43" type="line"/>
      <point x="127" y="343" type="line"/>
      <point x="40" y="343" type="line"/>
    </contour>
  </outline>
</glyph>
<glyph name="infinity" format="1">
  <advance width="491"/>
  <unicode hex="221E"/>
  <outline>
    <contour>
      <point x="332" y="231" type="qcurve"/>
      <point x="306" y="231"/>
      <point x="260" y="249"/>
      <point x="246" y="266" type="qcurve"/>
      <point x="232" y="249"/>
      <point x="187" y="231"/>
      <point x="161" y="231" type="qcurve"/>
      <point x="140" y="231"/>
      <point x="109" y="244"/>
      <point x="88" y="264"/>
      <point x="77" y="290"/>
      <point x="77" y="302" type="qcurve"/>
      <point x="77" y="315"/>
      <point x="88" y="340"/>
      <point x="109" y="360"/>
      <point x="140" y="373"/>
      <point x="161" y="373" type="qcurve"/>
      <point x="187" y="373"/>
      <point x="233" y="354"/>
      <point x="247" y="337" type="qcurve"/>
      <point x="260" y="354"/>
      <point x="306" y="373"/>
      <point x="332" y="373" type="qcurve"/>
      <point x="353" y="373"/>
      <point x="384" y="360"/>
      <point x="404" y="340"/>
      <point x="414" y="314"/>
      <point x="414" y="302" type="qcurve"/>
      <point x="414" y="290"/>
      <point x="404" y="264"/>
      <point x="384" y="244"/>
      <point x="353" y="231"/>
    </contour>
    <contour>
      <point x="234" y="302" type="qcurve"/>
      <point x="234" y="312"/>
      <point x="221" y="329"/>
      <point x="201" y="341"/>
      <point x="175" y="348"/>
      <point x="162" y="348" type="qcurve"/>
      <point x="133" y="348"/>
      <point x="105" y="318"/>
      <point x="105" y="302" type="qcurve"/>
      <point x="105" y="287"/>
      <point x="132" y="256"/>
      <point x="162" y="256" type="qcurve"/>
      <point x="175" y="256"/>
      <point x="200" y="263"/>
      <point x="221" y="275"/>
      <point x="234" y="292"/>
    </contour>
    <contour>
      <point x="260" y="300" type="line"/>
      <point x="262" y="280"/>
      <point x="307" y="256"/>
      <point x="332" y="256" type="qcurve"/>
      <point x="362" y="256"/>
      <point x="388" y="287"/>
      <point x="388" y="302" type="qcurve"/>
      <point x="388" y="318"/>
      <point x="361" y="348"/>
      <point x="332" y="348" type="qcurve"/>
      <point x="306" y="348"/>
      <point x="262" y="323"/>
      <point x="260" y="304" type="qcurve"/>
      <point x="260" y="302" type="line"/>
    </contour>
  </outline>
</glyph>
<glyph name="approxequal" format="1">
  <advance width="454"/>
  <unicode hex="2248"/>
  <outline>
    <contour>
      <point x="219" y="203" type="qcurve"/>
      <point x="203" y="220"/>
      <point x="179" y="232"/>
      <point x="165" y="232" type="qcurve"/>
      <point x="157" y="232"/>
      <point x="138" y="228"/>
      <point x="119" y="216"/>
      <point x="105" y="195"/>
      <point x="103" y="179" type="qcurve"/>
      <point x="80" y="182" type="line"/>
      <point x="81" y="201"/>
      <point x="97" y="229"/>
      <point x="121" y="247"/>
      <point x="151" y="256"/>
      <point x="165" y="256" type="qcurve"/>
      <point x="186" y="256"/>
      <point x="221" y="236"/>
      <point x="237" y="219" type="qcurve"/>
      <point x="253" y="202"/>
      <point x="277" y="190"/>
      <point x="291" y="190" type="qcurve"/>
      <point x="298" y="190"/>
      <point x="318" y="194"/>
      <point x="337" y="206"/>
      <point x="351" y="227"/>
      <point x="353" y="243" type="qcurve"/>
      <point x="376" y="240" type="line"/>
      <point x="375" y="221"/>
      <point x="359" y="194"/>
      <point x="335" y="176"/>
      <point x="305" y="167"/>
      <point x="291" y="167" type="qcurve"/>
      <point x="270" y="167"/>
      <point x="235" y="186"/>
    </contour>
    <contour>
      <point x="220" y="353" type="qcurve"/>
      <point x="204" y="370"/>
      <point x="180" y="382"/>
      <point x="166" y="382" type="qcurve"/>
      <point x="158" y="382"/>
      <point x="139" y="378"/>
      <point x="120" y="366"/>
      <point x="106" y="345"/>
      <point x="104" y="329" type="qcurve"/>
      <point x="81" y="332" type="line"/>
      <point x="82" y="351"/>
      <point x="98" y="379"/>
      <point x="122" y="397"/>
      <point x="152" y="406"/>
      <point x="166" y="406" type="qcurve"/>
      <point x="187" y="406"/>
      <point x="222" y="386"/>
      <point x="238" y="369" type="qcurve"/>
      <point x="254" y="352"/>
      <point x="278" y="340"/>
      <point x="292" y="340" type="qcurve"/>
      <point x="299" y="340"/>
      <point x="319" y="344"/>
      <point x="338" y="356"/>
      <point x="352" y="377"/>
      <point x="354" y="393" type="qcurve"/>
      <point x="377" y="390" type="line"/>
      <point x="376" y="371"/>
      <point x="360" y="344"/>
      <point x="336" y="326"/>
      <point x="306" y="317"/>
      <point x="292" y="317" type="qcurve"/>
      <point x="271" y="317"/>
      <point x="236" y="336"/>
    </contour>
  </outline>
</glyph>
